<?xml version="1.0" encoding="UTF-8"?><svg xmlns="http://www.w3.org/2000/svg" xmlns:xlink="http://www.w3.org/1999/xlink" viewBox="0 0 475 475"><defs><style>.g{fill:url(#e);}.h{fill:url(#d);}.i{fill:url(#f);}.j{fill:#fff;}.k{opacity:.85;}</style><linearGradient id="d" x1="-784.43" y1="-127.91" x2="-784.43" y2="-128.37" gradientTransform="translate(420467.18 63589.6) scale(535.71 494.42)" gradientUnits="userSpaceOnUse"><stop offset="0" stop-color="#715091"/><stop offset=".5" stop-color="#ba5b80"/><stop offset="1" stop-color="#ff8672"/></linearGradient><linearGradient id="e" x1="-783.51" y1="-127.84" x2="-783.51" y2="-128.3" gradientTransform="translate(241739.46 53127.1) scale(308.43 412.84)" xlink:href="#d"/><linearGradient id="f" x1="-784.7" y1="-127.84" x2="-784.7" y2="-128.3" gradientTransform="translate(242417.34 53127.75) scale(308.43 412.84)" xlink:href="#d"/></defs><g id="a"/><g id="b"><g id="c"><g><rect width="475" height="475" fill="#fff"/><g opacity=".85"><path d="M344.8,323.8H160.04l27.97-51.63h130.04L237.61,123.96l-123.12,227.07h246.03l-15.72-27.24Zm-106.74-143.89l34.59,63.78h-69.2l34.6-63.78Z" fill="#d"/><path d="M54.91,323.7l59.28-110.2,24.51,45.27,13.96-25.73-38.83-71.61L11,351.04H88.65l14.82-27.34H54.91" fill="#e"/><path d="M420.09,323.7l-59.28-110.2-24.52,45.27-13.95-25.73,38.82-71.59,102.83,189.6h-77.66l-14.81-27.36h48.56" fill="#f"/></g></g></g></g></svg>