<?xml version="1.0" encoding="UTF-8"?>
   <svg xmlns="http://www.w3.org/2000/svg" xmlns:xlink="http://www.w3.org/1999/xlink" viewBox="0 0 475 475">
      <defs>
         <linearGradient id="mtnLeft" x1="-1772.59" y1="-127.92" x2="-1772.59" y2="-128.38" gradientTransform="translate(949830.12 63596.67) scale(535.71 494.42)" gradientUnits="userSpaceOnUse">
            <stop offset="0" stop-color="#715091"/>
            <stop offset=".5" stop-color="#ba5b80"/>
            <stop offset="1" stop-color="#ff8672"/>
         </linearGradient>
         <linearGradient id="mtnCenter" x1="-1770.3" y1="-127.85" x2="-1770.3" y2="-128.31" gradientTransform="translate(546095.16 53133) scale(308.43 412.84)" xlink:href="#mtnLeft"/>
         <linearGradient id="mtnRight" x1="-1771.49" y1="-127.85" x2="-1771.49" y2="-128.31" gradientTransform="translate(546773.04 53133.66) scale(308.43 412.84)" xlink:href="#mtnLeft"/>
      </defs>
      <path d="M344.8,323.8H160.04l27.97-51.63h130.04L237.61,123.96l-123.12,227.07h246.03l-15.72-27.24Zm-106.74-143.89l34.59,63.78h-69.2l34.6-63.78Z" fill="url(#mtnLeft)"/>
      <path d="M54.91,323.7l59.28-110.2,24.51,45.27,13.96-25.73-38.83-71.61L11,351.04H88.65l14.82-27.34H54.91" fill="url(#mtnCenter)"/>
      <path d="M420.09,323.7l-59.28-110.2-24.52,45.27-13.95-25.73,38.82-71.59,102.83,189.6h-77.66l-14.81-27.36h48.56" fill="url(#mtnRight)"/>
</svg>