<svg xmlns="http://www.w3.org/2000/svg" viewBox="0 0 654.25 586.05">
  <g>
    <path d="M181.22,359.49a34.67,34.67,0,0,1,3.39,4.07,55.53,55.53,0,0,0,6.5,7.25,55.53,55.53,0,0,1-6.5-7.25A34.67,34.67,0,0,0,181.22,359.49Z" fill="#f6eef6"/>
    <path d="M621.05,135.55c.68.62,1.34,1.27,2,1.93-.64-.66-1.3-1.31-2-1.93-.38-.34-.75-.7-1.11-1.06C620.3,134.85,620.67,135.21,621.05,135.55Z" fill="#f6eef6"/>
    <path d="M171,348.37a5.36,5.36,0,0,1,1.47,2.32,7.24,7.24,0,0,0,1.95,3.12,7.24,7.24,0,0,1-1.95-3.12A5.42,5.42,0,0,0,171,348.37Z" fill="#f6eef6"/>
    <path d="M201,380a22.93,22.93,0,0,1,2.19,2.54,41.18,41.18,0,0,0,3.13,3.77,41.18,41.18,0,0,1-3.13-3.77A22.93,22.93,0,0,0,201,380Z" fill="#f6eef6"/>
    <path d="M258,286.47c-3.1-3-3.2-7-3-11.05a10.51,10.51,0,0,1,.84-3.61c2.62-6.11,3.53-12.73,5.68-19a41.54,41.54,0,0,1,4.77-10.07,38,38,0,0,0,5.32-11.11,6.65,6.65,0,0,1,2.63-4A7.76,7.76,0,0,0,277.6,222c.74-5,4.25-8.38,6.9-12.28.56-.83,1.91-1.41,2-2.23.66-4.73,5-7,6.93-10.86a3,3,0,0,1,1.23-1.36c3.51-1.59,4.87-4.89,6.67-7.91,3.64-6.09,8.53-11.22,13.56-16.09,2.12-2,5-3.36,6.94-5.88.52-.68,1.74-.37,2.44.35-.7-.72-1.92-1-2.44-.35-1.9,2.52-4.82,3.83-6.94,5.88-5,4.87-9.92,10-13.56,16.09-1.8,3-3.16,6.32-6.67,7.91a3,3,0,0,0-1.23,1.36c-2,3.83-6.27,6.13-6.93,10.86-.11.81-1.46,1.4-2,2.23-2.65,3.9-6.16,7.32-6.9,12.28a7.78,7.78,0,0,1-3.46,5.64,6.65,6.65,0,0,0-2.63,4,38,38,0,0,1-5.32,11.11,41.54,41.54,0,0,0-4.77,10.07c-2.15,6.23-3.06,12.85-5.68,19a10.51,10.51,0,0,0-.84,3.61C254.75,279.45,254.85,283.43,258,286.47Z" fill="#f6eef6"/>
    <path d="M159.8,339.76c1.14,1.15,2.22,2.38,3.37,3.52C162,342.14,160.94,340.91,159.8,339.76Z" fill="#f6eef6"/>
    <path d="M319.15,152.59c-.49-.52-.95-1.06-1.39-1.62-1.14-1.46-2-3.15-3.24-4.52a6.85,6.85,0,0,1-1.83-6.27c.31-1.62.38-3.28.59-4.92.08-.6.06-1.41.43-1.76,2.17-2.07,2.74-5.07,4.38-7.37a17.67,17.67,0,0,1,5.45-4.91c3.39-2,7.11-3.32,10.65-5,2.42-1.16,4.76-2.51,7.17-3.7a22.32,22.32,0,0,1,4.54-1.88,9.93,9.93,0,0,0,4.54-1.8,3.2,3.2,0,0,1,2.2-.91c3.57.57,6.41-1.43,9.47-2.56,7.3-2.68,14.18-1.79,20.76,2.13h0c-6.58-3.92-13.46-4.81-20.76-2.13-3.06,1.13-5.9,3.13-9.47,2.56a3.23,3.23,0,0,0-2.2.9,9.83,9.83,0,0,1-4.54,1.81,22.32,22.32,0,0,0-4.54,1.88c-2.41,1.19-4.75,2.54-7.17,3.7-3.54,1.7-7.26,3.07-10.65,5a17.67,17.67,0,0,0-5.45,4.91c-1.64,2.3-2.21,5.3-4.38,7.37-.37.35-.35,1.16-.43,1.76-.21,1.64-.28,3.3-.59,4.92a6.85,6.85,0,0,0,1.83,6.27c1.23,1.37,2.1,3.06,3.24,4.52C318.2,151.53,318.66,152.07,319.15,152.59Z" fill="#f6eef6"/>
    <path d="M218.56,284.26c-1-.95-2.05-1.81-3-2.79C216.51,282.44,217.58,283.31,218.56,284.26Z" fill="#f6eef6"/>
    <path d="M209.34,296.68h0c-.77-3.23-1.33-5.58-1.86-7.92a2.07,2.07,0,0,1,0-1.2c1.38-3,.73-6,.41-9.06-.18-1.76,1.16-2.66,2.77-1.95a7.81,7.81,0,0,1,2.45,1.24,7.81,7.81,0,0,0-2.45-1.24c-1.61-.71-3,.19-2.77,1.95.32,3.05,1,6.08-.41,9.06a2.07,2.07,0,0,0,0,1.2C208,291.1,208.57,293.45,209.34,296.68Z" fill="#f6eef6"/>
    <path d="M152,372.64a10.94,10.94,0,0,1,1.74,2.15,10.45,10.45,0,0,0,1.92,2.34,10.45,10.45,0,0,1-1.92-2.34A10.94,10.94,0,0,0,152,372.64Z" fill="#f6eef6"/>
    <path d="M158.64,338.63a4.09,4.09,0,0,1,.8-6.46c3.61-1.93,6.58-4.94,10.79-5.94,1.87-.44,3.62-2,5.09-3.35,5.38-5,12.16-7.81,18.32-11.59a4.48,4.48,0,0,1,2.36-.64c2.32.09,3.73-1.39,5.42-2.61a32.74,32.74,0,0,1,6.47-3.54c6.49-2.72,13-5.31,19.56-7.9a36.29,36.29,0,0,0,8.72-4.51c3.65-2.73,8.32-2.13,12.52-3.11a3.84,3.84,0,0,1,2.73,1.13c.43.38.84.76,1.25,1.16-.41-.4-.82-.78-1.25-1.16a3.84,3.84,0,0,0-2.73-1.13c-4.2,1-8.87.38-12.52,3.11a36.29,36.29,0,0,1-8.72,4.51c-6.53,2.59-13.07,5.18-19.56,7.9a32.74,32.74,0,0,0-6.47,3.54c-1.69,1.22-3.1,2.7-5.42,2.61a4.48,4.48,0,0,0-2.36.64c-6.16,3.78-12.94,6.55-18.32,11.59-1.47,1.39-3.22,2.91-5.09,3.35-4.21,1-7.18,4-10.79,5.94a4.09,4.09,0,0,0-.8,6.46Z" fill="#f6eef6"/>
    <path d="M180.28,366.48c.95.79,1.84,1.65,2.71,2.53-.87-.88-1.76-1.74-2.71-2.53-3-2.49-6-4.92-8.7-7.63C174.32,361.56,177.32,364,180.28,366.48Z" fill="#f6eef6"/>
    <path d="M140.88,328.83a7.56,7.56,0,0,1,1,.74,7.56,7.56,0,0,0-1-.74,38.45,38.45,0,0,1-5.81-4.69A38.45,38.45,0,0,0,140.88,328.83Z" fill="#f6eef6"/>
    <path d="M191.27,376.45a2.79,2.79,0,0,1,.58.46,2.79,2.79,0,0,0-.58-.46,30.42,30.42,0,0,1-5.68-4.79A30.42,30.42,0,0,0,191.27,376.45Z" fill="#f6eef6"/>
    <path d="M147.12,334.65a6.47,6.47,0,0,1,2.07,1.33,6.47,6.47,0,0,0-2.07-1.33,4.75,4.75,0,0,1-1.43-1A4.75,4.75,0,0,0,147.12,334.65Z" fill="#f6eef6"/>
    <path d="M151.92,340c3.09,2.68,6.29,5.23,9.35,7.94,1,.88,2,1.76,3,2.69-1-.93-2-1.81-3-2.69-3.06-2.71-6.26-5.26-9.35-7.94a4.36,4.36,0,0,1-.43-.43A4.36,4.36,0,0,0,151.92,340Z" fill="#f6eef6"/>
    <path d="M137.75,358.25h0c.61.36.75,1.43,1.2,2.11a40.92,40.92,0,0,0,5.87,7.52,40.92,40.92,0,0,1-5.87-7.52C138.5,359.68,138.36,358.61,137.75,358.25Z" fill="#f6eef6"/>
    <path d="M604.07,121.48c4.74,2.56,8.7,6.11,12.62,9.71.38.35.74.71,1.1,1.08-.36-.37-.72-.73-1.1-1.08-3.92-3.6-7.89-7.15-12.62-9.71a6.71,6.71,0,0,1-1.56-1.06A6.71,6.71,0,0,0,604.07,121.48Z" fill="#f6eef6"/>
    <path d="M212.22,399h0c-1.79-1.68-3.7-3.25-5.5-4.94h0C208.52,395.75,210.43,397.32,212.22,399Z" fill="#f6eef6"/>
    <path d="M212,401.43s0,0,0,0,0,0,0,0Z" fill="#f6eef6"/>
    <path d="M201.91,389.23h0c-.83-.79-1.65-1.57-2.45-2.37C200.26,387.66,201.08,388.45,201.91,389.23Z" fill="#f6eef6"/>
    <path d="M376.78,131.16c.91,2.4,4.5,3.61,6.83,2.51,1.84-.87,3.57-2,5.44-3,.76-3,1.52-6,2.47-9.67-1.65-1.45-3.07-2.63-4.39-3.9-2.16-2.08-3.54-2.37-6-1C375.34,119.43,374.53,125.26,376.78,131.16Z" fill="#f6eef6"/>
    <path d="M400.13,258.94h0a10.06,10.06,0,0,1-2.51-2.09A10.06,10.06,0,0,0,400.13,258.94Z" fill="#f6eef6"/>
    <path d="M386,242.14a15.13,15.13,0,0,1,2.72,2.2,15.13,15.13,0,0,0-2.72-2.2,7,7,0,0,1-1.41-1.18A7,7,0,0,0,386,242.14Z" fill="#f6eef6"/>
    <path d="M350.07,196.34a13.4,13.4,0,0,1,2.55,2.24,13.4,13.4,0,0,0-2.55-2.24,39.46,39.46,0,0,1-7.14-5.87A39.81,39.81,0,0,0,350.07,196.34Z" fill="#f6eef6"/>
    <path d="M388.06,266.87a25.8,25.8,0,0,1-2.4-3.59c-.81-1.15-1.67-2.27-2.57-3.36a2.13,2.13,0,0,0-.21-.22,2.13,2.13,0,0,1,.21.22c.9,1.09,1.76,2.21,2.57,3.36a25.8,25.8,0,0,0,2.4,3.59,39.92,39.92,0,0,1,7.54,11.29,11.18,11.18,0,0,0,2.5,3.95,11.18,11.18,0,0,1-2.5-3.95A39.92,39.92,0,0,0,388.06,266.87Z" fill="#f6eef6"/>
    <path d="M380.33,233.69l-1.32-1.3h0Z" fill="#f6eef6"/>
    <path d="M539.86,97.51a11.9,11.9,0,0,0,4.35-2.09,9.82,9.82,0,0,1,7.08-1.59c1.82.26,3.68.34,5.52.49.41,0,1-.13,1.21.07,3.27,2.54,7.51,2,11.06,3.51a21.19,21.19,0,0,1,4.24,2.48c5.46,4.08,10.84,8.26,17.17,11a23,23,0,0,1,4,2.79c.83.6,1.53,1.65,2.42,1.82a6.94,6.94,0,0,1,3.69,1.89A6.94,6.94,0,0,0,597,116c-.89-.17-1.59-1.22-2.42-1.82a23,23,0,0,0-4-2.79c-6.33-2.75-11.71-6.93-17.17-11a21.19,21.19,0,0,0-4.24-2.48c-3.55-1.55-7.79-1-11.06-3.51-.26-.2-.8,0-1.21-.07-1.84-.15-3.7-.23-5.52-.49a9.82,9.82,0,0,0-7.08,1.59,11.9,11.9,0,0,1-4.35,2.09c-5.48.89-9.26,4-12.87,8.83h0C530.6,101.56,534.38,98.4,539.86,97.51Z" fill="#f6eef6"/>
    <path d="M339.34,207a17.27,17.27,0,0,1,3.09,4,7.82,7.82,0,0,0,1.43,1.86,7.82,7.82,0,0,1-1.43-1.86A17.27,17.27,0,0,0,339.34,207Z" fill="#f6eef6"/>
    <path d="M350.26,218c1.71,1.78,3.31,3.68,5.06,5.43h0C353.57,221.63,352,219.73,350.26,218Z" fill="#f6eef6"/>
    <path d="M357,225.07c3.94,4,7.72,8,10.29,13.16a22.82,22.82,0,0,0,3.33,5,22.82,22.82,0,0,1-3.33-5C364.73,233.11,361,229,357,225.07Z" fill="#f6eef6"/>
    <path d="M381.82,139.51c3.39-.1,6.57-.15,9.28-2.53a6.69,6.69,0,0,1,2-.87,4.12,4.12,0,0,1,1.73,1.16,4.12,4.12,0,0,0-1.73-1.16,6.69,6.69,0,0,0-2,.87c-2.71,2.38-5.89,2.43-9.28,2.53a9.07,9.07,0,0,1-6.91-2.44A9.07,9.07,0,0,0,381.82,139.51Z" fill="#f6eef6"/>
    <path d="M372.81,245.36c1.61,1.79,2.2,4.17,4,5.73h0C375,249.53,374.42,247.15,372.81,245.36Z" fill="#f6eef6"/>
    <path d="M378.36,252.59a10.79,10.79,0,0,1,3.08,5.6,1.21,1.21,0,0,0,.44.67,1.21,1.21,0,0,1-.44-.67A10.79,10.79,0,0,0,378.36,252.59Z" fill="#f6eef6"/>
    <path d="M120.73,308.94a16.63,16.63,0,0,1,3.47,2.48,16.63,16.63,0,0,0-3.47-2.48,15.79,15.79,0,0,1-4.53-3A15.79,15.79,0,0,0,120.73,308.94Z" fill="#f6eef6"/>
    <path d="M354.63,157.39c3.88-2.74,3.74-7.13,4.37-11.11a10.36,10.36,0,0,0-.83-4.82,19.45,19.45,0,0,0-5-7.7,19.45,19.45,0,0,1,5,7.7,10.36,10.36,0,0,1,.83,4.82c-.63,4-.49,8.37-4.37,11.11-1,3.1-4,3.26-6.36,4.44-5.36,2.7-5.36,2.69-10.18,2.7h0c4.82,0,4.82,0,10.18-2.7C350.6,160.65,353.64,160.49,354.63,157.39Z" fill="#f6eef6"/>
    <path d="M322.32,196.73a3.19,3.19,0,0,1-.65-4.12c1.18-2.38,2.5-4.69,3.72-7.05a55,55,0,0,0,4.94-15.32c1-.07,1.75-.17,2.53-.18,2.07,0,3.61.21,4.31,1-.7-.82-2.24-1.06-4.31-1-.78,0-1.55.11-2.53.18a55,55,0,0,1-4.94,15.32c-1.22,2.36-2.54,4.67-3.72,7.05A3.19,3.19,0,0,0,322.32,196.73Z" fill="#f6eef6"/>
    <path d="M264.65,405a22.44,22.44,0,0,1-1.93-1.69,22.44,22.44,0,0,0,1.93,1.69,9,9,0,0,1,.8.71A9,9,0,0,0,264.65,405Z" fill="#f6eef6"/>
    <path d="M384.75,175.41a10.41,10.41,0,0,1,.82.94,5,5,0,0,0,.78.81,5,5,0,0,1-.78-.81A10.41,10.41,0,0,0,384.75,175.41Z" fill="#f6eef6"/>
    <path d="M392.66,169.81c-.37-.37-.78-.71-1.12-1.09C391.88,169.1,392.29,169.44,392.66,169.81Z" fill="#f6eef6"/>
    <path d="M259.17,397.68h0a12.32,12.32,0,0,1-.9-.87C258.56,397.11,258.85,397.4,259.17,397.68Z" fill="#f6eef6"/>
    <path d="M335.8,199.26c.84-3.82,1.65-7.64,2.56-11.9.89.23,2.14.17,2.56.73h0c-.42-.56-1.67-.5-2.56-.73-.91,4.26-1.72,8.08-2.56,11.9-.51,2.33-.19,4.39,1.43,6C335.61,203.65,335.29,201.59,335.8,199.26Z" fill="#f6eef6"/>
    <path d="M257.19,337.08c3.15,5.09,5.91,10.43,8.55,15.81s4.21,11.55,8.14,16.51c1.89,2.4,3,5.41,4.57,8.08a6.66,6.66,0,0,0,.93,1.2,6.66,6.66,0,0,1-.93-1.2c-1.57-2.67-2.68-5.68-4.57-8.08-3.93-5-5.44-11-8.14-16.51s-5.4-10.72-8.55-15.81c-1.46-2.37-2.07-4.57-1.1-7A27,27,0,0,0,257.93,318a18.32,18.32,0,0,1,1.27-6.67c1.14-3.35,2.26-6.65,2-10.28a8,8,0,0,1,.62-3,2.55,2.55,0,0,1,3.42-1.77,12.05,12.05,0,0,1,5.47,3.31,12.05,12.05,0,0,0-5.47-3.31,2.55,2.55,0,0,0-3.42,1.77,8,8,0,0,0-.62,3c.3,3.63-.82,6.93-2,10.28a18.32,18.32,0,0,0-1.27,6.67,27,27,0,0,1-1.84,12.14C255.12,332.51,255.73,334.71,257.19,337.08Z" fill="#f6eef6"/>
    <path d="M288.65,263.48c1.34-1.35,2.6-2.66,2.74-4.69,0-.4.11-1,.37-1.16,3.75-2.44,4.41-6.8,6.47-10.29.83-1.39,1.49-2.88,2.25-4.32,2.76-5.27,5.5-10.57,8.37-15.79.43-.79,1.51-1.22,2.67-2.1h0c-1.16.88-2.24,1.31-2.67,2.1-2.87,5.22-5.61,10.52-8.37,15.79-.76,1.44-1.42,2.93-2.25,4.32-2.06,3.49-2.72,7.85-6.47,10.29-.26.18-.35.76-.37,1.16-.14,2-1.4,3.34-2.74,4.69a10.65,10.65,0,0,0-2.08,3c-2.93,6.61-7.88,11.49-13.3,16.05a30.14,30.14,0,0,0-4.86,5.57c-1.11,1.55-1,3,.11,4.09-1.09-1.06-1.22-2.54-.11-4.09a30.14,30.14,0,0,1,4.86-5.57c5.42-4.56,10.37-9.44,13.3-16.05A10.65,10.65,0,0,1,288.65,263.48Z" fill="#f6eef6"/>
    <path d="M276,306c.2.24.55.42.74.63-.19-.21-.54-.39-.74-.63Z" fill="#f6eef6"/>
    <path d="M350.18,137.59c-.88-2.24-2.69-3.08-4.91-3.1a22.73,22.73,0,0,0-4.94.39c-3.74.77-9.56,6.39-9.34,9.87.27,4.15.29,8.58,4.49,11.61,4.59,3.3,9.42,3.32,13.23-.84,2.54-2.79,5-5.69,3.68-9.91C354,142.25,351.2,140.19,350.18,137.59Z" fill="#f6eef6"/>
    <path d="M324,240.23c-.83-1.63-1-3.76-2.13-5-3.2-3.61-3.08-8.39-4.69-12.52-2.36-6-2.39-12.49,1.34-18.39,1-1.66,2.4-2.29,4.17-1.49a39.76,39.76,0,0,1,5.51,2.83c3.28,2.13,6.46,4.41,9.63,6.71a9.27,9.27,0,0,1,1.19,1,10.26,10.26,0,0,0-1.19-1c-3.17-2.29-6.35-4.57-9.63-6.7a39.76,39.76,0,0,0-5.51-2.83c-1.77-.8-3.12-.17-4.17,1.49-3.73,5.9-3.7,12.35-1.34,18.39,1.61,4.13,1.49,8.91,4.69,12.52,1.14,1.29,1.3,3.42,2.13,5,1.58,3.12,3.41,6.11,5,9.23,2.33,4.57,3.57,9.81,7.15,13.59-3.58-3.78-4.82-9-7.15-13.59C327.37,246.34,325.55,243.35,324,240.23Z" fill="#f6eef6"/>
    <path d="M369.82,250.56a17,17,0,0,1,2.73,2.25,17,17,0,0,0-2.73-2.25,14.08,14.08,0,0,1-1.58-1.26A14.08,14.08,0,0,0,369.82,250.56Z" fill="#f6eef6"/>
    <path d="M344.83,273.91c-1.73-2.74-5.08-4.38-5.44-8a.45.45,0,0,0-.14-.26.45.45,0,0,1,.14.26c.36,3.66,3.71,5.3,5.44,8,1.64,2.59,4,4.77,4.41,8a103.32,103.32,0,0,0,8.62,9.92,103.32,103.32,0,0,1-8.62-9.92C348.81,278.68,346.47,276.5,344.83,273.91Z" fill="#f6eef6"/>
    <path d="M372.82,303.44a10,10,0,0,0-1.83-2.17,10,10,0,0,1,1.83,2.17,1.67,1.67,0,0,0,.39.41A1.67,1.67,0,0,1,372.82,303.44Z" fill="#f6eef6"/>
    <path d="M295,366.59a8.93,8.93,0,0,1-2-7.22c.4-4.3.67-8.6,1-12.9,0-.21,0-.45,0-.62.44-.86.74-2.16,1.43-2.43a3.07,3.07,0,0,1,2.6.93h0a3.07,3.07,0,0,0-2.6-.93c-.69.27-1,1.57-1.43,2.43-.09.17,0,.41,0,.61-.32,4.31-.59,8.61-1,12.91A8.93,8.93,0,0,0,295,366.59Z" fill="#f6eef6"/>
    <path d="M314.2,362.62a39.34,39.34,0,0,1,5.71,4.69h0a39.34,39.34,0,0,0-5.71-4.69,15.87,15.87,0,0,1-2.76-2A15.87,15.87,0,0,0,314.2,362.62Z" fill="#f6eef6"/>
    <path d="M404.11,297c-.54-5.89-1.62-11.66,2.21-17.32a44.9,44.9,0,0,0,6.59-16,42.54,42.54,0,0,1,2.07-5.79c.42-1.15,1.18-2.27,1.22-3.43a6.31,6.31,0,0,1,1.73-4.47,6,6,0,0,0,1.44-2.68c1.32-5.84,4-11.17,6.09-16.74a22.9,22.9,0,0,1,1.34-2.78A67.56,67.56,0,0,0,432,215.92c1-3.32,3.3-6.27,4.23-9.61,1.77-6.38,6.15-11.1,9.44-16.53s6-10.84,9.17-16.14a109.46,109.46,0,0,1,6.71-9.61A18.72,18.72,0,0,0,465,157.5a15.64,15.64,0,0,1,4.76-7.88c4.31-3.71,7-8.66,10.46-13,3.22-4.08,6.43-8,10.77-11a20.82,20.82,0,0,0,5.11-5.35c1.7-2.48,3.5-4.42,6.59-5.17,1.71-.41,3.24-1.63,5-2.58h0c-1.77,1-3.3,2.17-5,2.58-3.09.75-4.89,2.69-6.59,5.17a20.82,20.82,0,0,1-5.11,5.35c-4.34,3-7.55,7-10.77,11-3.44,4.36-6.15,9.31-10.46,13A15.64,15.64,0,0,0,465,157.5a18.72,18.72,0,0,1-3.47,6.53,109.46,109.46,0,0,0-6.71,9.61c-3.19,5.3-6,10.85-9.17,16.14s-7.67,10.15-9.44,16.53c-.93,3.34-3.21,6.29-4.23,9.61a67.56,67.56,0,0,1-5.22,11.87,22.9,22.9,0,0,0-1.34,2.78c-2.07,5.57-4.77,10.9-6.09,16.74a6,6,0,0,1-1.44,2.68,6.31,6.31,0,0,0-1.73,4.47c0,1.16-.8,2.28-1.22,3.43a42.54,42.54,0,0,0-2.07,5.79,44.9,44.9,0,0,1-6.59,16c-3.83,5.66-2.75,11.43-2.21,17.32a2.55,2.55,0,0,0,1,1.81A2.55,2.55,0,0,1,404.11,297Z" fill="#f6eef6"/>
    <path d="M300.87,371a7.23,7.23,0,0,1,1.51,2.39,2,2,0,0,0,.36.57,2,2,0,0,1-.36-.57A7.23,7.23,0,0,0,300.87,371Z" fill="#f6eef6"/>
    <path d="M308.83,357a1.61,1.61,0,0,1,.48.32,1.61,1.61,0,0,0-.48-.32,7.5,7.5,0,0,1-2.44-1.82A7.5,7.5,0,0,0,308.83,357Z" fill="#f6eef6"/>
    <path d="M513,157l.2.21Z" fill="#f6eef6"/>
    <path d="M555.37,185.55c1.9,1.67,2.64,4.24,4.59,5.94-2-1.7-2.69-4.27-4.59-5.94Z" fill="#f6eef6"/>
    <path d="M567,199c-.82-.91-1.6-1.87-2.41-2.79s-1.71-2.28-2.69-3.22c1,.94,1.77,2.19,2.69,3.22s1.59,1.88,2.41,2.79c2.63,2.91,5.36,5.73,7.85,8.75,2.24,2.7,4,5.79,6.38,8.39h0c-2.35-2.6-4.14-5.69-6.38-8.39C572.39,204.72,569.66,201.9,567,199Z" fill="#f6eef6"/>
    <path d="M587,220.74h0c1.68,1.61,2.09,4.08,3.69,5.87C589.13,224.82,588.72,222.35,587,220.74Z" fill="#f6eef6"/>
    <path d="M545.4,176.3c1.19,1.18,2.3,2.43,3.43,3.63h0C547.7,178.73,546.59,177.48,545.4,176.3Z" fill="#f6eef6"/>
    <path d="M499.3,204.35c.2-1.21,0-2.49.3-3.69a32.18,32.18,0,0,1,3-8.07c2.88-5.48,5.18-11.29,5.49-17.58a18.63,18.63,0,0,1,3.41-10,13,13,0,0,1,8.73,1.51c1.24.7,2.57,1.26,3.88,1.84a7.14,7.14,0,0,1,1.9,1.18,7.14,7.14,0,0,0-1.9-1.18c-1.31-.58-2.64-1.14-3.88-1.84a13,13,0,0,0-8.73-1.51,18.63,18.63,0,0,0-3.41,10c-.31,6.29-2.61,12.1-5.49,17.58a32.18,32.18,0,0,0-3,8.07c-.26,1.2-.1,2.48-.3,3.69s-.65,2.54-1.16,4.5h0C498.65,206.89,499.08,205.64,499.3,204.35Z" fill="#f6eef6"/>
    <path d="M563.21,143.41a15.2,15.2,0,0,1,2.68,2.3,15.2,15.2,0,0,0-2.68-2.3,16.53,16.53,0,0,1-1.59-1.25A16.53,16.53,0,0,0,563.21,143.41Z" fill="#f6eef6"/>
    <path d="M513,146.87a26.57,26.57,0,0,0,.9-9.77c-.26-5.18.5-10.27.61-15.41.06-3.07.15-6.15-1-9.19a2.49,2.49,0,0,1,3-3.39c3.06.54,6.11,1.1,9.11,1.87a11.81,11.81,0,0,1,3.84,1.91c3.87,2.74,7.73,5.51,11.45,8.44a119,119,0,0,1,11,9.62,119,119,0,0,0-11-9.62c-3.72-2.93-7.58-5.7-11.45-8.44a11.81,11.81,0,0,0-3.84-1.91c-3-.77-6-1.33-9.11-1.87a2.49,2.49,0,0,0-3,3.39c1.1,3,1,6.12,1,9.19-.11,5.14-.87,10.23-.61,15.41a26.57,26.57,0,0,1-.9,9.77c-1.16,3.35-1,6.41-.29,9.84h0C512,153.28,511.83,150.22,513,146.87Z" fill="#f6eef6"/>
    <path d="M318.67,379.63c-1.45,1.06-3.69,1.3-4.73,2.58a13.86,13.86,0,0,1-4.88,3.63c-2.21,1.13-4.7,2.09-6.35,3.81-3.75,3.92-8.33,6.73-12.38,10.23-1.86,1.61-3.72,1.53-5.13-.12,1.41,1.65,3.27,1.73,5.13.12,4.05-3.5,8.63-6.31,12.38-10.23,1.65-1.72,4.14-2.68,6.35-3.81a14,14,0,0,0,4.88-3.62c1-1.29,3.28-1.53,4.73-2.59a41.1,41.1,0,0,0,3.92-3.89,1.84,1.84,0,0,1,1.13-.49c3.68-.09,6.08-2.27,8.22-4.94a2.9,2.9,0,0,1,1.51-1c3.53-.75,6.41-2.8,9.5-4.48,3.68-2,7.68-.7,11.53-.41a2.79,2.79,0,0,1,1.62.88,2.79,2.79,0,0,0-1.62-.88c-3.85-.29-7.85-1.6-11.53.41-3.09,1.68-6,3.73-9.5,4.48a2.9,2.9,0,0,0-1.51,1c-2.14,2.67-4.54,4.85-8.22,4.94a1.84,1.84,0,0,0-1.13.49A41.1,41.1,0,0,1,318.67,379.63Z" fill="#f6eef6"/>
    <path d="M161.51,387.39c4.34,2.36,8.1,5.81,13.11,6.95a5.89,5.89,0,0,1,2.59,1.66c3.66,3.59,8.2,5.55,13,7,4.51,1.42,8.69,3.88,13.66,3.93,1.45,0,2.88,1.35,4.68,2.25h0c-1.8-.9-3.23-2.23-4.68-2.25-5-.05-9.15-2.51-13.66-3.93-4.76-1.49-9.3-3.45-13-7a5.89,5.89,0,0,0-2.59-1.66c-5-1.14-8.77-4.59-13.11-6.95-4.91-2.67-9.73-5.5-13.6-9.63C151.78,381.89,156.6,384.72,161.51,387.39Z" fill="#f6eef6"/>
    <path d="M553,123.29c.47.52.82,1.45,1.36,2,2.16,2.19,4,4.74,6.09,7-2.12-2.23-3.93-4.78-6.09-7C553.78,124.74,553.43,123.81,553,123.29Z" fill="#f6eef6"/>
    <path d="M6,552.46a12.33,12.33,0,0,0,1-4.76A17.93,17.93,0,0,1,10,538.43c3.53-5.59,7-11.24,8.64-17.78a11.14,11.14,0,0,1,1.92-3.85c1-1.37,1.92-2.66,1.92-4.45a2.81,2.81,0,0,1,.44-1.76c5.24-5.75,6.48-13.67,10.9-19.86.83-1.17,1.51-2.45,2.25-3.68,2.11-3.53,4.47-6.88,6-10.78,1.36-3.41,4.1-6.28,5.41-9.7,2.42-6.36,7.58-10.71,11-16.26,3.25-5.26,7.17-10.07,9.91-15.7,1.68-3.46,4.34-6.49,6.78-9.54A19.67,19.67,0,0,0,79,418a15.6,15.6,0,0,1,4.39-7.4c4.51-4.13,7.15-9.57,10.7-14.36,2.84-3.82,5.53-7.73,9.29-10.77a42.84,42.84,0,0,0,3.31-3.66,30.39,30.39,0,0,1,2.42-2h0a30.39,30.39,0,0,0-2.42,2,42.84,42.84,0,0,1-3.31,3.66c-3.76,3-6.45,6.95-9.29,10.77-3.55,4.79-6.19,10.23-10.7,14.36A15.6,15.6,0,0,0,79,418a19.67,19.67,0,0,1-3.7,7.09c-2.44,3.05-5.1,6.08-6.78,9.54-2.74,5.63-6.66,10.44-9.91,15.7-3.44,5.55-8.6,9.9-11,16.26-1.31,3.42-4,6.29-5.41,9.7-1.56,3.9-3.92,7.25-6,10.78-.74,1.23-1.42,2.51-2.25,3.68-4.42,6.19-5.66,14.11-10.9,19.86a2.81,2.81,0,0,0-.44,1.76c0,1.79-.91,3.08-1.92,4.45a11.14,11.14,0,0,0-1.92,3.85C17,527.19,13.56,532.84,10,538.43A17.93,17.93,0,0,0,7,547.7a12.33,12.33,0,0,1-1,4.76c-.9,2.07-.69,3.8.35,4.83C5.3,556.26,5.09,554.53,6,552.46Z" fill="#f6eef6"/>
    <path d="M154.85,572.17c-.31-3.08-1.61-5.76-3-8.5a16.71,16.71,0,0,1-1.5-6.58c-.37-7.05-1-14-3.71-20.65-.52-1.29-.42-2.83-.69-4.24a30.51,30.51,0,0,0-.88-3.54c-.18-.58-.89-1.16-.8-1.63.81-4.31-1.61-8-2.12-12a42.94,42.94,0,0,0-1.26-5.35c-.82-3.17-1.15-6.47-1.69-9.72-.63-3.86-1-7.74-2.36-11.5-1.1-3.09-1.48-6.43-2.18-9.66a34.68,34.68,0,0,0-1.23-5.42,20.47,20.47,0,0,1-1.15-8.48,50.59,50.59,0,0,0-1.17-10.43c-1.63-9.12-3.7-18.16-5.07-27.34a22.57,22.57,0,0,0-2.24-6.38,17.56,17.56,0,0,1-2.12-8.35c.29-5.93-1.78-11.41-2.85-17.07a77.64,77.64,0,0,1-1.73-14.11,34.66,34.66,0,0,0-1.7-9.07c-.58-2-1.34-3.82-.61-6a6.93,6.93,0,0,0-1-5.94c-2.62-4.23-2.56-9.05-3.13-13.74-.15-1.2.11-2.64-.48-3.56-2.85-4.55-2-9.66-2-14.48a48.13,48.13,0,0,0-.38-8.56c-.33-1.75-1.3-3.55.26-5.72.44.38,1,.69,1.32,1.06-.35-.37-.88-.68-1.32-1.06-1.56,2.17-.59,4-.26,5.72a48.13,48.13,0,0,1,.38,8.56c0,4.82-.82,9.93,2,14.48.59.92.33,2.36.48,3.56.57,4.69.51,9.51,3.13,13.73a7,7,0,0,1,1,5.95c-.73,2.17,0,4,.61,6a34.66,34.66,0,0,1,1.7,9.07,77.64,77.64,0,0,0,1.73,14.11c1.07,5.66,3.14,11.14,2.85,17.07a17.56,17.56,0,0,0,2.12,8.35,22.57,22.57,0,0,1,2.24,6.38c1.37,9.18,3.44,18.22,5.07,27.34a50.59,50.59,0,0,1,1.17,10.43,20.47,20.47,0,0,0,1.15,8.48,35.85,35.85,0,0,1,1.23,5.42c.7,3.23,1.08,6.57,2.18,9.66,1.34,3.76,1.73,7.64,2.36,11.5.54,3.25.87,6.55,1.69,9.72a42.94,42.94,0,0,1,1.26,5.35c.51,4,2.93,7.71,2.12,12-.09.47.62,1.05.8,1.63a30.51,30.51,0,0,1,.88,3.54c.27,1.41.17,2.95.69,4.24,2.69,6.64,3.34,13.6,3.71,20.65a16.71,16.71,0,0,0,1.5,6.58c1.38,2.74,2.68,5.42,3,8.5Z" fill="#f6eef6"/>
    <path d="M540.59,113.36a13.7,13.7,0,0,1,1.92,2.31h0A13.7,13.7,0,0,0,540.59,113.36Z" fill="#f6eef6"/>
    <path d="M160.28,489.85c-.32-2.23-.2-4.52-.58-6.73A9.58,9.58,0,0,1,162,475a17.3,17.3,0,0,1,3.57-3.43c5.5-3.58,9-9,13.15-13.83a70.25,70.25,0,0,1,8.57-8.92,27.81,27.81,0,0,0,6.61-8.09c1.05-1.84,2-3.53,4.06-4.44a6,6,0,0,0,3.47-4.16c1.27-5,4.87-8.56,8.06-12.29a10,10,0,0,0,2.51-4.12,5.63,5.63,0,0,1,1.37-2.72c3-2.83,4.36-7,7.84-9.51,1.35-1,1.85-3.14,2.7-4.78q5-9.62,10-19.26a1.43,1.43,0,0,1,.34-.51c2.9-1.93,3.94-5.09,5.38-9,1,.83,1.7,1.25,2.13,1.67-.43-.42-1.14-.84-2.13-1.67-1.44,3.93-2.48,7.09-5.38,9a1.43,1.43,0,0,0-.34.51q-5,9.63-10,19.26c-.85,1.64-1.35,3.8-2.7,4.78-3.48,2.54-4.82,6.68-7.84,9.51a5.63,5.63,0,0,0-1.37,2.72,10,10,0,0,1-2.51,4.12c-3.19,3.73-6.79,7.25-8.06,12.29a6,6,0,0,1-3.47,4.16c-2.07.91-3,2.6-4.06,4.44a27.81,27.81,0,0,1-6.61,8.09,70.25,70.25,0,0,0-8.57,8.92c-4.15,4.83-7.65,10.25-13.15,13.83A17.3,17.3,0,0,0,162,475a9.58,9.58,0,0,0-2.25,8.08c.38,2.21.26,4.5.58,6.73a66.16,66.16,0,0,0,2.12,9.89h0A66.16,66.16,0,0,1,160.28,489.85Z" fill="#f6eef6"/>
    <path d="M566.6,137.24a5.7,5.7,0,0,1,1.65,3.41,6.57,6.57,0,0,0,1.49,3.81,6.57,6.57,0,0,1-1.49-3.81A5.7,5.7,0,0,0,566.6,137.24Z" fill="#f6eef6"/>
    <path d="M629,143.28a18.63,18.63,0,0,1,1.81,1.63,18.63,18.63,0,0,0-1.81-1.63,24.86,24.86,0,0,1-2.12-1.83A24.86,24.86,0,0,0,629,143.28Z" fill="#f6eef6"/>
    <path d="M115.34,319a3.55,3.55,0,0,0,.36,1.81c3,6.79,5.5,13.85,10.33,19.71a24.88,24.88,0,0,1,3.41,5.13c1.78,3.74,3,7.82,5.94,10.77-3-3-4.16-7-5.94-10.77a24.88,24.88,0,0,0-3.41-5.13c-4.83-5.86-7.32-12.92-10.33-19.71a3.55,3.55,0,0,1-.36-1.81c.49-2.91-1-5.1-2.27-7.51a18.63,18.63,0,0,1-1.45-5.92,2.3,2.3,0,0,1,1.31-1.76,2.6,2.6,0,0,1,2,.4,2.6,2.6,0,0,0-2-.4,2.29,2.29,0,0,0-1.31,1.76,18.63,18.63,0,0,0,1.45,5.92C114.3,313.89,115.83,316.08,115.34,319Z" fill="#f6eef6"/>
    <path d="M637.07,152.63a10.92,10.92,0,0,1,1.64,1.35,10.92,10.92,0,0,0-1.64-1.35,2.08,2.08,0,0,1-.43-.41A2.08,2.08,0,0,0,637.07,152.63Z" fill="#f6eef6"/>
    <path d="M139.75,377.66a10.65,10.65,0,0,1,1,3.51,30.29,30.29,0,0,0,1.09,4.81c2.64,6.22,3.26,12.78,3.67,19.41a20.45,20.45,0,0,0,1,5.46c1.24,3.45,2.65,6.76,3.19,10.51.34,2.36,1.31,4.71,1.36,7.22a37.87,37.87,0,0,0,2.89,14.54,16.24,16.24,0,0,1,1,7.26,44.24,44.24,0,0,0,.94,11.66c.59,2.56,2,4.89,1.38,7.7a1.73,1.73,0,0,0,.58,1.23,1.73,1.73,0,0,1-.58-1.23c.61-2.81-.79-5.14-1.38-7.7a44.24,44.24,0,0,1-.94-11.66,16.24,16.24,0,0,0-1-7.26A37.87,37.87,0,0,1,151,428.58c-.05-2.51-1-4.86-1.36-7.22-.54-3.75-1.95-7.06-3.19-10.51a20.45,20.45,0,0,1-1-5.46c-.41-6.63-1-13.19-3.67-19.41a30.29,30.29,0,0,1-1.09-4.81,10.65,10.65,0,0,0-1-3.51c-1.48-2.21-1.22-4.26.42-7.32,1.74,1.56,3.43,2.79,4.83,4.15-1.4-1.36-3.09-2.59-4.83-4.15C138.53,373.4,138.27,375.45,139.75,377.66Z" fill="#f6eef6"/>
    <path d="M234.5,496a.84.84,0,0,1-.25-.36A41.27,41.27,0,0,1,233,489a23,23,0,0,1,.29-4.28c-.57-4.52-1.13-9-1.7-13.5a3.27,3.27,0,0,1,1.21-3.27,2.52,2.52,0,0,1,3.43.2,2.52,2.52,0,0,0-3.43-.2,3.27,3.27,0,0,0-1.21,3.27c.57,4.49,1.13,9,1.7,13.5A23,23,0,0,0,233,489a41.27,41.27,0,0,0,1.24,6.6A.84.84,0,0,0,234.5,496Z" fill="#f6eef6"/>
    <path d="M244.73,367.38A6.34,6.34,0,0,1,244,362a21.07,21.07,0,0,1,1.58-4c1.21-2.41,2.71-4.68,3.76-7.14a82.94,82.94,0,0,0,2.45-8h0a82.94,82.94,0,0,1-2.45,8c-1.05,2.46-2.55,4.73-3.76,7.14a21.07,21.07,0,0,0-1.58,4,6.34,6.34,0,0,0,.77,5.39c2.21,3.19,4.62,6.25,6.81,9.46s4.23,6.72,7,9.6c-2.75-2.88-4.75-6.32-7-9.6S246.94,370.57,244.73,367.38Z" fill="#f6eef6"/>
    <path d="M260.07,388.17a1.28,1.28,0,0,0-.33-.53h0a1.28,1.28,0,0,1,.33.53c1.56,5.14,6.24,8.06,8.94,12.47a28.54,28.54,0,0,0,4.54,5.39,28.54,28.54,0,0,1-4.54-5.39C266.31,396.23,261.63,393.31,260.07,388.17Z" fill="#f6eef6"/>
    <path d="M372.63,385.45a3.21,3.21,0,0,0,.92,2.21c1.58,1.58,1.95,3.52,2.26,5.6a8.91,8.91,0,0,0,1.36,3.42,2.3,2.3,0,0,0,.45.49,2.3,2.3,0,0,1-.45-.49,8.91,8.91,0,0,1-1.36-3.42c-.31-2.08-.68-4-2.26-5.6a3.21,3.21,0,0,1-.92-2.21c.24-2.93-1.21-5.15-2.73-7.39-1.68-2.48-2-5.29-2.28-8.11,4.48-2.78,9-1.84,13.45-1.06a3.67,3.67,0,0,1,1.71.91,3.67,3.67,0,0,0-1.71-.91c-4.45-.78-9-1.72-13.45,1.05.25,2.83.6,5.64,2.28,8.12C371.42,380.3,372.87,382.52,372.63,385.45Z" fill="#f6eef6"/>
    <path d="M375.36,437a21.21,21.21,0,0,0-4.35-7.44,15.55,15.55,0,0,1-4.09-7.58c-1.31-6.19-4.78-11.4-7.2-17.09-1.78-4.18-3.13-8.53-4.69-12.8-.71-1.93-1.4-3.86-2.22-5.74-1.4-3.2-4.16-5.64-5-9.21a1.38,1.38,0,0,0-.54-.82,1.38,1.38,0,0,1,.54.82c.8,3.57,3.56,6,5,9.21.82,1.88,1.51,3.81,2.22,5.74,1.56,4.27,2.91,8.62,4.69,12.8,2.42,5.69,5.89,10.9,7.2,17.09a15.55,15.55,0,0,0,4.09,7.58,21.21,21.21,0,0,1,4.35,7.44c2.79,7.11,6.58,13.76,9.82,20.65a17.25,17.25,0,0,0,3.07,4.78,17.25,17.25,0,0,1-3.07-4.78C381.94,450.71,378.15,444.06,375.36,437Z" fill="#f6eef6"/>
    <path d="M343.57,475.23c-.33-.39-.76-1.26-.6-1.43,2.19-2.3,1.93-5.32,2.63-8.09a145.49,145.49,0,0,1,4.73-15.26,86.88,86.88,0,0,0,4.13-13.55c1.05-5.23,2.82-10.31,4.33-15.44.09-.3.62-.46,1.14-.82a7.13,7.13,0,0,1,.79.76,7.13,7.13,0,0,0-.79-.76c-.52.36-1.05.52-1.14.82-1.51,5.13-3.28,10.21-4.33,15.44a86.88,86.88,0,0,1-4.13,13.55,145.49,145.49,0,0,0-4.73,15.26c-.7,2.77-.44,5.79-2.63,8.09-.16.17.27,1,.6,1.43Z" fill="#f6eef6"/>
    <path d="M336.42,390a8.62,8.62,0,0,1,2.39-2.63c1.85-1.2,3.87-2.13,6.17-3.37a6.83,6.83,0,0,1,1.38,1,6.83,6.83,0,0,0-1.38-1c-2.3,1.24-4.32,2.17-6.17,3.37a8.62,8.62,0,0,0-2.39,2.63,2,2,0,0,0,.26,2.49A2,2,0,0,1,336.42,390Z" fill="#f6eef6"/>
    <path d="M207.84,278.5c.32,3.05,1,6.08-.41,9.06a2.07,2.07,0,0,0,0,1.2c.53,2.34,1.09,4.69,1.86,7.92,4-1.45,7.67-2.69,11.25-4.1a2.74,2.74,0,0,0,1.34-3.66,17.53,17.53,0,0,0-1.58-2.62,13.35,13.35,0,0,0-1.79-2c-1-.95-2.05-1.82-3-2.79a10.06,10.06,0,0,1-2.34-3.42,1,1,0,0,0-.15-.26,7.81,7.81,0,0,0-2.45-1.24C209,275.84,207.66,276.74,207.84,278.5Z" fill="#ed7e69"/>
    <path d="M321.85,165.38c-1.9,2.52-4.82,3.83-6.94,5.88-5,4.87-9.92,10-13.56,16.09-1.8,3-3.16,6.32-6.67,7.91a3,3,0,0,0-1.23,1.36c-2,3.83-6.27,6.13-6.93,10.86-.11.82-1.46,1.4-2,2.23-2.65,3.9-6.16,7.32-6.9,12.28a7.76,7.76,0,0,1-3.46,5.64,6.65,6.65,0,0,0-2.63,4,38,38,0,0,1-5.32,11.11,41.54,41.54,0,0,0-4.77,10.07c-2.15,6.23-3.06,12.85-5.68,19a10.51,10.51,0,0,0-.84,3.61c-.15,4-.05,8,3,11.05a11.49,11.49,0,0,0,1.52,1.24,16.34,16.34,0,0,0,7.27-6.31c3-4.41,6.75-8.36,10.19-12.48,4.32-5.19,9.51-9.67,12.12-16.22,1.36-3.41,3.69-6.43,5.39-9.73s3.13-6.72,4.75-10.05c1-2,2.18-4,3.16-6,2.24-4.61,4.53-9.21,5.76-14.24a6.21,6.21,0,0,1,1.47-2.67,5.87,5.87,0,0,0,1.82-4.41c0-1.12.83-2.25,1.26-3.38s1.26-2.33,1.18-3.45c-.18-2.46.84-4.38,1.94-6.39,1.88-3.45,3.7-6.93,5.43-10.44a23.28,23.28,0,0,0,1.42-4.09c.9-3.33-.11-7.08,2.29-10.09.17-.22-.07-.79-.16-1.19a1.81,1.81,0,0,0-.47-.84C323.59,165,322.37,164.7,321.85,165.38Z" fill="#e5798b"/>
    <path d="M362.11,105.35c-3.06,1.13-5.9,3.13-9.47,2.56a3.2,3.2,0,0,0-2.2.91,9.93,9.93,0,0,1-4.54,1.8,22.32,22.32,0,0,0-4.54,1.88c-2.41,1.19-4.75,2.54-7.17,3.7-3.54,1.7-7.26,3.07-10.65,5a17.67,17.67,0,0,0-5.45,4.91c-1.64,2.3-2.21,5.3-4.38,7.37-.37.35-.35,1.16-.43,1.76-.21,1.64-.28,3.3-.59,4.92a6.85,6.85,0,0,0,1.83,6.27c1.23,1.37,2.1,3.06,3.24,4.52.44.56.9,1.1,1.39,1.62a16.32,16.32,0,0,0,1.53,1.47c1.89,1.59,3.89,3.06,5.88,4.53.8.6,1.68,1.31,2.83,0-.51-.81-1.08-1.64-1.57-2.52-2.52-4.54-2.79-9.57-2.37-14.5a13.16,13.16,0,0,1,4.72-9.21c3.31-2.66,7.66-2.93,11.55-4.26a2.15,2.15,0,0,1,1.21.14,25,25,0,0,1,10.25,5.54,19.45,19.45,0,0,1,5,7.7,10.36,10.36,0,0,1,.83,4.82c-.63,4-.49,8.37-4.37,11.11-1,3.1-4,3.26-6.36,4.44-5.36,2.7-5.36,2.69-10.18,2.7,2.73,2.09,5,4.25,8,5.2,2.33.75,4.91.74,7.25,1.48,2.51.81,4.26,3.14,7.11,3.6,3.87.63,7.66,1.78,11.52,2.49,1.33.24,2.77-.17,4.47-.3v-6.21c.73-.21,1.28-.54,1.46-.4,2.21,1.78,4.85,3,6.86,5a10.41,10.41,0,0,1,.82.94,5,5,0,0,0,.78.81,5.52,5.52,0,0,0,6.89.09c1.51-1.31,1.52-4.81-.06-6.87a4.62,4.62,0,0,0-.52-.57c-.37-.37-.78-.71-1.12-1.09a3.3,3.3,0,0,1-.46-.6,13.71,13.71,0,0,1-1.66-3.93,2,2,0,0,1,3.21-1.94,40,40,0,0,1,3.84,3.58c.59-1.05,1.29-1.72,1.27-2.36-.2-6.81-.5-13.61-.83-20.42a10.8,10.8,0,0,0-.65-3,8,8,0,0,0-1.38-2.76,4.12,4.12,0,0,0-1.73-1.16,6.69,6.69,0,0,0-2,.87c-2.71,2.38-5.89,2.43-9.28,2.53a9.07,9.07,0,0,1-6.91-2.44,9.71,9.71,0,0,1-.75-.81,22.42,22.42,0,0,1-3.83-5.61c-1.81-4.4-2.06-8.82,1.34-12.8,1.21-1.41,2.26-3,3.35-4.47a7.82,7.82,0,0,1,5.05-3.34c1-.18,2-.39,3.31-.66-.3-1.17-.27-1.76-.51-1.9C376.29,103.56,369.41,102.67,362.11,105.35Z" fill="#e5798b"/>
    <path d="M496.14,120.21a20.82,20.82,0,0,1-5.11,5.35c-4.34,3-7.55,7-10.77,11-3.44,4.36-6.15,9.31-10.46,13A15.64,15.64,0,0,0,465,157.5a18.72,18.72,0,0,1-3.47,6.53,109.46,109.46,0,0,0-6.71,9.61c-3.19,5.3-6,10.85-9.17,16.14s-7.67,10.15-9.44,16.53c-.93,3.34-3.21,6.29-4.23,9.61a67.56,67.56,0,0,1-5.22,11.87,22.9,22.9,0,0,0-1.34,2.78c-2.07,5.57-4.77,10.9-6.09,16.74a6,6,0,0,1-1.44,2.68,6.31,6.31,0,0,0-1.73,4.47c0,1.16-.8,2.28-1.22,3.43a42.54,42.54,0,0,0-2.07,5.79,44.9,44.9,0,0,1-6.59,16c-3.83,5.66-2.75,11.43-2.21,17.32a2.55,2.55,0,0,0,1,1.81,2.77,2.77,0,0,0,3.28.1c2.37-1.65,4.54-3.58,6.81-5.37,1.29-1,2.49-2.31,4-2.88a18.46,18.46,0,0,0,9.64-8.33,19.85,19.85,0,0,1,5.37-6c1.47-1.1,2.68-2.56,4.1-3.75,4.11-3.42,6.89-8.27,11.88-10.78a6.79,6.79,0,0,0,2.86-3.15c1.7-4,4.81-6.67,7.94-9.4a19.72,19.72,0,0,0,3.52-3.49c4.56-6.6,10.87-11.78,15-18.74,1.15-1.91,2.76-3.55,3.57-5.73a8.81,8.81,0,0,1,1.92-3.16c3.8-3.75,5-8.91,7.26-13.47,2.81-5.74,4.71-11.92,7.1-17.87,1.09-2.71,2.1-5.42,1.88-8.4a7.18,7.18,0,0,1,1.34-5.27,6.42,6.42,0,0,0,1.25-2.79c1.19-7.33,3.31-14.55,2.72-22.12-.14-1.82-.26-4,.52-5.47,2-3.87,1.16-8.16,2.35-12.11a3.93,3.93,0,0,0-.22-2.43c-.84-2-.37-3.95-.05-6,.49-3.16.8-6.52-1.4-9.74-1.77,1-3.3,2.17-5,2.58C499.64,115.79,497.84,117.73,496.14,120.21Z" fill="#e5798b"/>
    <path d="M372.82,303.44a1.67,1.67,0,0,0,.39.41,7.46,7.46,0,0,0,1.69.86c3.92,1.67,7.62,4.43,12.3,2.65.34-.13.81.07,1.42.14,3.25,1,5.82-.85,8.29-2.75a3.92,3.92,0,0,0,1.64-4.38c-1.21-3.92-1.55-8.12-4.14-11.59a17.3,17.3,0,0,1-2.12-4.44,54.63,54.63,0,0,0-6.89-12.41c-3.31-4.71-7.3-8.94-9.63-14.35a15.74,15.74,0,0,0-3.22-4.77,17,17,0,0,0-2.73-2.25,14.08,14.08,0,0,1-1.58-1.26,23.89,23.89,0,0,1-3.73-4.71,148.73,148.73,0,0,0-14.93-18.81c-3.31-3.67-7-7-9.64-11.26a6.4,6.4,0,0,0-1-1.2,9.27,9.27,0,0,0-1.19-1c-3.17-2.3-6.35-4.58-9.63-6.71a39.76,39.76,0,0,0-5.51-2.83c-1.77-.8-3.12-.17-4.17,1.49-3.73,5.9-3.7,12.35-1.34,18.39,1.61,4.13,1.49,8.91,4.69,12.52,1.14,1.29,1.3,3.42,2.13,5,1.59,3.12,3.41,6.11,5,9.23,2.33,4.57,3.57,9.81,7.15,13.59a14.46,14.46,0,0,0,2.9,2.35,1.21,1.21,0,0,1,.25.21.45.45,0,0,1,.14.26c.36,3.66,3.71,5.3,5.44,8,1.64,2.59,4,4.77,4.41,8a103.32,103.32,0,0,0,8.62,9.92,41.65,41.65,0,0,0,6.12,5c2.31,1.52,4.94,2.57,7,4.43A10,10,0,0,1,372.82,303.44Z" fill="#e5798b"/>
    <path d="M520.2,166.47a13,13,0,0,0-8.73-1.51,18.63,18.63,0,0,0-3.41,10c-.31,6.29-2.61,12.1-5.49,17.58a32.18,32.18,0,0,0-3,8.07c-.26,1.2-.1,2.48-.3,3.69s-.65,2.54-1.16,4.5c5.16-3.91,10.31-6.67,12.67-12.39.37-.9,1.37-1.53,2-2.36,2-2.65,4-5.27,5.76-8,1.68-2.57,3.1-5.31,4.7-7.93.75-1.23,1.69-2.34,2.5-3.52,1.55-2.24,1.64-3.86.24-5.13a7.14,7.14,0,0,0-1.9-1.18C522.77,167.73,521.44,167.17,520.2,166.47Z" fill="#ed7e69"/>
    <path d="M594.54,114.18a23,23,0,0,0-4-2.79c-6.33-2.75-11.71-6.93-17.17-11a21.19,21.19,0,0,0-4.24-2.48c-3.55-1.55-7.79-1-11.06-3.51-.26-.2-.8,0-1.21-.07-1.84-.15-3.7-.23-5.52-.49a9.82,9.82,0,0,0-7.08,1.59,11.9,11.9,0,0,1-4.35,2.09c-5.48.89-9.26,4-12.86,8.83,1.18.89,1.76,1.61,2.47,1.8,4.08,1.12,8.09,2.31,11.12,5.22a13.7,13.7,0,0,1,1.92,2.31c3.74,1.81,5.66,6.08,9.93,7.26a1.1,1.1,0,0,1,.52.36c.47.52.82,1.45,1.36,2,2.16,2.19,4,4.74,6.09,7a20,20,0,0,0,4.31,3.54,9.09,9.09,0,0,1,1.88,1.46,5.7,5.7,0,0,1,1.65,3.41,6.57,6.57,0,0,0,1.49,3.81c1.31,1.47,3.37,2,5.77,2.25a27,27,0,0,1,5.39,1.16c4.73,1.46,9.44,3,14.11,4.61,5.23,1.84,10.83,2.55,15.65,5.68a17.84,17.84,0,0,0,9.47,2.61,14.47,14.47,0,0,1,4.8,1c5.77,2.23,11.48,4.62,17.24,6.87a2.68,2.68,0,0,0,2.23,0,2.39,2.39,0,0,0,.39-2.18c-1.87-4.23-2.64-9.08-6.08-12.45a10.92,10.92,0,0,0-1.64-1.35,2.08,2.08,0,0,1-.43-.41c-.38-.47-.65-1.1-1-1.57-1.6-1.88-3.05-4-4.75-5.74a18.63,18.63,0,0,0-1.81-1.63,24.86,24.86,0,0,1-2.12-1.83c-1.35-1.27-2.59-2.64-3.88-4-.64-.66-1.3-1.31-2-1.93-.38-.34-.75-.7-1.11-1.06-.73-.73-1.43-1.49-2.15-2.22-.36-.37-.72-.73-1.1-1.08-3.92-3.6-7.88-7.15-12.62-9.71a6.71,6.71,0,0,1-1.56-1.06,2,2,0,0,1-.35-.47,9,9,0,0,0-1.51-2.06A6.94,6.94,0,0,0,597,116C596.07,115.83,595.37,114.78,594.54,114.18Z" fill="#ed7e69"/>
    <path d="M590.73,226.61a5.77,5.77,0,0,0,.76.72c2.91,2.31,5.46,5,8.26,7.51a9.32,9.32,0,0,0,2.49,1.14c.39-.49.62-.64.62-.8.1-7.25-.44-14.34-4.85-20.55-.53-.76-.4-2-.68-2.94-1.32-4.54-2.37-9.17-5.62-12.91-1.05-1.2-2.32-2.86-2.25-4.25.17-3.64-1.72-6.23-3.4-9.06a35.45,35.45,0,0,1-3.19-7.35,78.64,78.64,0,0,0-5.2-11.88c-2.72-5.31-6.7-9.9-8.77-15.61a14.48,14.48,0,0,0-3-4.92,15.2,15.2,0,0,0-2.68-2.3,16.53,16.53,0,0,1-1.59-1.25,30.1,30.1,0,0,1-3.92-4.56,63.15,63.15,0,0,0-5.76-6.65,119,119,0,0,0-11-9.62c-3.72-2.93-7.58-5.7-11.45-8.44a11.81,11.81,0,0,0-3.84-1.91c-3-.77-6-1.33-9.11-1.87a2.49,2.49,0,0,0-3,3.39c1.1,3,1,6.12,1,9.19-.11,5.14-.87,10.23-.61,15.41a26.57,26.57,0,0,1-.9,9.77c-1.16,3.35-1,6.41-.29,9.84.12.11.22.2.3.29l.2.21a.7.7,0,0,0,.28.2,38.49,38.49,0,0,1,19.76,10.9,14,14,0,0,0,5.22,3.28,18.8,18.8,0,0,1,6.94,4.71c1.19,1.18,2.3,2.43,3.43,3.63,2,2.16,4.39,3.72,6.54,5.62h0c1.9,1.67,2.64,4.24,4.59,5.94a6.19,6.19,0,0,0,.92.67,5.94,5.94,0,0,1,1,.82c1,.94,1.77,2.19,2.69,3.22s1.59,1.88,2.41,2.79c2.63,2.91,5.36,5.73,7.85,8.75,2.24,2.7,4,5.79,6.38,8.39,1.62,1.81,4,2.92,5.78,4.61h0C588.72,222.35,589.13,224.82,590.73,226.61Z" fill="#e5798b"/>
    <path d="M342.93,190.47a27.16,27.16,0,0,1-2-2.38c-.42-.56-1.67-.5-2.56-.73-.91,4.26-1.72,8.08-2.56,11.9-.51,2.33-.19,4.39,1.43,6a7.26,7.26,0,0,0,.78.65,11.88,11.88,0,0,1,1.33,1.09,17.27,17.27,0,0,1,3.09,4,7.82,7.82,0,0,0,1.43,1.86,3.08,3.08,0,0,0,.61.43,25.27,25.27,0,0,1,5.79,4.66c1.71,1.78,3.31,3.68,5.06,5.43l1.69,1.69c3.94,4,7.72,8,10.29,13.16a22.82,22.82,0,0,0,3.33,5,12.08,12.08,0,0,0,1.42,1.36,7.55,7.55,0,0,1,.76.73c1.61,1.79,2.2,4.17,4,5.73.55.48,1.08,1,1.58,1.5a10.79,10.79,0,0,1,3.08,5.6,1.21,1.21,0,0,0,.44.67c.3.28.69.54,1,.84a2.13,2.13,0,0,1,.21.22c.9,1.09,1.76,2.21,2.57,3.36a25.8,25.8,0,0,0,2.4,3.59,39.92,39.92,0,0,1,7.54,11.29,11.18,11.18,0,0,0,2.5,3.95,6.52,6.52,0,0,0,1.54,1c.62-1.15,1.5-2.11,1.64-3.17.39-2.85.33-5.75,2.32-8.18a3.56,3.56,0,0,0,.31-2.39c-.41-3.78-2-7.14-3.78-10.44a10.06,10.06,0,0,1-2.51-2.09c-2.1-2.41-3.21-5.57-5.19-8.08a52.6,52.6,0,0,0-3.67-4.43,15.13,15.13,0,0,0-2.72-2.2,7,7,0,0,1-1.41-1.18,6.16,6.16,0,0,1-1.51-2.62,9.51,9.51,0,0,0-2.79-4.65l-1.32-1.3h0a31,31,0,0,1-5.36-6.73,70.6,70.6,0,0,0-8-11c-3.74-4.38-8.18-8.16-11-13.32a15.51,15.51,0,0,0-2-2.78,13.4,13.4,0,0,0-2.55-2.24A39.81,39.81,0,0,1,342.93,190.47Z" fill="#ed7e69"/>
    <path d="M103.33,385.45c-3.76,3-6.45,6.95-9.29,10.77-3.55,4.79-6.19,10.23-10.7,14.36A15.6,15.6,0,0,0,79,418a19.67,19.67,0,0,1-3.7,7.09c-2.44,3.05-5.1,6.08-6.78,9.54-2.74,5.63-6.66,10.44-9.91,15.7-3.44,5.55-8.6,9.9-11,16.26-1.31,3.42-4,6.29-5.41,9.7-1.56,3.9-3.92,7.25-6,10.78-.74,1.23-1.42,2.51-2.25,3.68-4.42,6.19-5.66,14.11-10.9,19.86a2.81,2.81,0,0,0-.44,1.76c0,1.79-.91,3.08-1.92,4.45a11.14,11.14,0,0,0-1.92,3.85C17,527.19,13.56,532.84,10,538.43A17.93,17.93,0,0,0,7,547.7a12.33,12.33,0,0,1-1,4.76c-.9,2.07-.69,3.8.35,4.83a4.37,4.37,0,0,0,3.8.93c4.68-.66,9.35-1.45,13.94-2.52a60,60,0,0,0,9.4-3.14c5-2.07,9.79-4.43,14.7-6.62a8.42,8.42,0,0,1,3-.8c4.61-.19,8.23-2.36,11.54-5.36a26.27,26.27,0,0,1,4.51-3.26c2.86-1.64,5.84-3,8.73-4.64,2.53-1.4,4.85-3.29,7.51-4.3,3.9-1.47,7.66-2.86,10.36-6.33.81-1,2.48-1.42,3.75-2.12,1.63-.9,3.31-1.71,4.86-2.73,5-3.26,10-6.47,14.79-9.95,3.65-2.64,7.08-5.61,10.49-8.57a14.44,14.44,0,0,0,3.09-3.86c.56-1,1.07-2.55.69-3.48-1.35-3.34-1.14-6.94-2.07-10.28a92.7,92.7,0,0,1-2.77-19,19.47,19.47,0,0,0-2.06-8.36,6.11,6.11,0,0,1-.74-4.76,7.06,7.06,0,0,0,.19-3.06c-1.21-6.09-2.24-12.23-3.89-18.19-1.09-4-3-7.72-2.07-12a6.26,6.26,0,0,0-.4-2.43c-.86-3.77-.09-7.92-2.76-11.29-.39-.51,0-1.59-.06-2.41a33.73,33.73,0,0,0-5.77-18.93,30.39,30.39,0,0,0-2.42,2A42.84,42.84,0,0,1,103.33,385.45Z" fill="#e5798b"/>
    <path d="M112.93,303.8a2.3,2.3,0,0,0-1.31,1.76,18.63,18.63,0,0,0,1.45,5.92c1.23,2.41,2.76,4.6,2.27,7.51a3.55,3.55,0,0,0,.36,1.81c3,6.79,5.5,13.85,10.33,19.71a24.88,24.88,0,0,1,3.41,5.13c1.78,3.74,3,7.82,5.94,10.77a12.58,12.58,0,0,0,2.37,1.84h0c.61.36.75,1.43,1.2,2.11a40.92,40.92,0,0,0,5.87,7.52,16.51,16.51,0,0,0,4.88,3.22,8,8,0,0,1,2.25,1.54,10.94,10.94,0,0,1,1.74,2.15,10.45,10.45,0,0,0,1.92,2.34,10.92,10.92,0,0,0,2.53,1.68,45.29,45.29,0,0,1,9.73,6.53,53,53,0,0,0,11,6.82c5.35,2.67,10.87,5,16.41,7.22a31.42,31.42,0,0,0,7.75,2,78.62,78.62,0,0,0,8.95.07h0s0,0,0,0a2.22,2.22,0,0,0,.93-.89c.17-.33-.28-1.18-.68-1.56-1.79-1.68-3.7-3.25-5.5-4.94h0c-1.65-1.56-3.16-3.27-4.81-4.83-.83-.78-1.65-1.57-2.45-2.37a32.63,32.63,0,0,1-6.28-8,8.2,8.2,0,0,0-1.33-1.95,2.79,2.79,0,0,0-.58-.46,30.42,30.42,0,0,1-5.68-4.79c-.87-.88-1.73-1.78-2.6-2.65s-1.76-1.74-2.71-2.53c-3-2.49-6-4.92-8.7-7.63A45.34,45.34,0,0,1,167,353.6a22.68,22.68,0,0,0-2.69-3c-1-.93-2-1.81-3-2.69-3.06-2.71-6.26-5.26-9.35-7.94a4.36,4.36,0,0,1-.43-.43,5.29,5.29,0,0,1-1-1.57,5.76,5.76,0,0,0-1.32-2,6.47,6.47,0,0,0-2.07-1.33,4.75,4.75,0,0,1-1.43-1c-.44-.43-.86-.91-1.29-1.33-.89-.86-1.67-1.87-2.57-2.7a7.56,7.56,0,0,0-1-.74,38.45,38.45,0,0,1-5.81-4.69,75.78,75.78,0,0,1-8-9.43,23,23,0,0,0-2.89-3.29,16.63,16.63,0,0,0-3.47-2.48,15.79,15.79,0,0,1-4.53-3,7.71,7.71,0,0,1-1.11-1.53,1.14,1.14,0,0,0-.15-.17A2.6,2.6,0,0,0,112.93,303.8Z" fill="#e5798b"/>
    <path d="M107.8,319.86a48.13,48.13,0,0,1,.38,8.56c0,4.82-.82,9.93,2,14.48.59.92.33,2.36.48,3.56.57,4.69.51,9.51,3.13,13.74a6.93,6.93,0,0,1,1,5.94c-.73,2.17,0,4,.61,6a34.66,34.66,0,0,1,1.7,9.07,77.64,77.64,0,0,0,1.73,14.11c1.07,5.66,3.14,11.14,2.85,17.07a17.56,17.56,0,0,0,2.12,8.35,22.57,22.57,0,0,1,2.24,6.38c1.37,9.18,3.44,18.22,5.07,27.34a50.59,50.59,0,0,1,1.17,10.43,20.47,20.47,0,0,0,1.15,8.48,34.68,34.68,0,0,1,1.23,5.42c.7,3.23,1.08,6.57,2.18,9.66,1.34,3.76,1.73,7.64,2.36,11.5.54,3.25.87,6.55,1.69,9.72a42.94,42.94,0,0,1,1.26,5.35c.51,4,2.93,7.71,2.12,12-.09.47.62,1.05.8,1.63a30.51,30.51,0,0,1,.88,3.54c.27,1.41.17,2.95.69,4.24,2.69,6.64,3.34,13.6,3.71,20.65a16.71,16.71,0,0,0,1.5,6.58c1.38,2.74,2.68,5.42,3,8.5,0,.09.34.14,1.35.5.28-3,0-5.84.89-8.27a20.11,20.11,0,0,0,.73-11,5.68,5.68,0,0,1,0-2.46,12.72,12.72,0,0,0-.63-8.49,2.82,2.82,0,0,1-.32-1.8c1.45-4,1-8,.11-12.09-.24-1.13.75-2.67.3-3.57-1.25-2.46-.58-4.86-.45-7.3a29.88,29.88,0,0,0,.18-6.18,179.58,179.58,0,0,1-2.14-22.07,81.81,81.81,0,0,0-1.26-9.83c-.83-5.1-1.83-10.18-2.67-15.28a7.83,7.83,0,0,1,.13-3.05c1-4.05,0-7.74-1.56-11.45a38.78,38.78,0,0,1-1.92-6.49,62.6,62.6,0,0,1-1.28-7.32c-.51-4.91-2.77-9.54-2.22-14.65a7.19,7.19,0,0,0-1.07-4.13c-2.09-3.51-2.6-7.36-3.09-11.28-.31-2.45-.91-4.87-1.38-7.29a41.28,41.28,0,0,1-.95-4.86c-.34-4.76-1.78-9.27-3.18-13.75s-1.67-9.36-4-13.64c-.45-.83-.13-2-.29-3.06a29.81,29.81,0,0,0-4.79-12.58,65.87,65.87,0,0,1-7.89-15.39,24.6,24.6,0,0,0-2.42-5.68c-1.92-2.74-3.74-5.26-3.55-8.92.09-1.72-1.07-3.53-1.82-5.23a1.52,1.52,0,0,0-.28-.4c-.35-.37-.88-.68-1.32-1.06C106.5,316.31,107.47,318.11,107.8,319.86Z" fill="#e5798b"/>
    <path d="M248.69,289c-4.2,1-8.87.38-12.52,3.11a36.29,36.29,0,0,1-8.72,4.51c-6.53,2.59-13.07,5.18-19.56,7.9a32.74,32.74,0,0,0-6.47,3.54c-1.69,1.22-3.1,2.7-5.42,2.61a4.48,4.48,0,0,0-2.36.64c-6.16,3.78-12.94,6.55-18.32,11.59-1.47,1.39-3.22,2.91-5.09,3.35-4.21,1-7.18,4-10.79,5.94a4.09,4.09,0,0,0-.8,6.46c.4.37.78.74,1.16,1.13,1.14,1.15,2.22,2.38,3.37,3.52a15,15,0,0,0,5.4,3.63,6.64,6.64,0,0,1,2.43,1.46,5.42,5.42,0,0,1,1.47,2.32,7.24,7.24,0,0,0,1.95,3.12,25.48,25.48,0,0,0,2.86,2.27,30.4,30.4,0,0,1,3.94,3.41,34.67,34.67,0,0,1,3.39,4.07,55.53,55.53,0,0,0,6.5,7.25l2.32,2.29c2.4,2.4,5.19,4.49,7.55,6.91a22.93,22.93,0,0,1,2.19,2.54,41.18,41.18,0,0,0,3.13,3.77,34.5,34.5,0,0,0,12.31,8.41c1.93-2.7,4.18-5,5.39-7.71,2.86-6.45,6.51-12.45,10-18.55,3-5.36,6.68-10.32,8.29-16.44.88-3.37,2.85-6.48,3.58-9.87.92-4.29,2.62-8.25,4.07-12.32,1-2.91,1.87-5.9,2.67-8.88.53-2,.91-4,1.25-6,.67-4,.86-8.09,2.23-12.06.81-2.36.15-5.23.15-8-1.17-1.18-2.31-2.43-3.53-3.61-.41-.4-.82-.78-1.25-1.16A3.84,3.84,0,0,0,248.69,289Z" fill="#e5798b"/>
    <path d="M295.46,343.42c-.69.27-1,1.57-1.43,2.43-.09.17,0,.41,0,.62-.32,4.3-.59,8.6-1,12.9a8.93,8.93,0,0,0,2,7.22,9.4,9.4,0,0,0,2.16,1.7,16,16,0,0,1,3.69,2.68,7.23,7.23,0,0,1,1.51,2.39,2,2,0,0,0,.36.57,6.9,6.9,0,0,0,1.88,1.34c1.42.79,2.95,1.38,4.55,2.1,3.38-1.94,6.79-3.85,10.13-5.86a2.55,2.55,0,0,0,.61-4.2,39.34,39.34,0,0,0-5.71-4.69,15.87,15.87,0,0,1-2.76-2,4.78,4.78,0,0,1-1.11-1.77,4.1,4.1,0,0,0-1-1.56,1.61,1.61,0,0,0-.48-.32,7.5,7.5,0,0,1-2.44-1.82c-1.12-1.22-1.93-2.7-2.94-4-1.75-2.3-3.47-4.63-5.39-6.78A3.07,3.07,0,0,0,295.46,343.42Z" fill="#ed7e69"/>
    <path d="M343,364.79c-3.09,1.68-6,3.73-9.5,4.48a2.9,2.9,0,0,0-1.51,1c-2.14,2.67-4.54,4.85-8.22,4.94a1.84,1.84,0,0,0-1.13.49,41.1,41.1,0,0,1-3.92,3.89c-1.45,1.06-3.69,1.3-4.73,2.59a14,14,0,0,1-4.88,3.62c-2.21,1.13-4.7,2.09-6.35,3.81-3.75,3.92-8.33,6.73-12.38,10.23-1.86,1.61-3.72,1.53-5.13-.12a5,5,0,0,1-.58-.8q-5.85-9.52-11.53-19.15a7.63,7.63,0,0,1-1-2.89,17.52,17.52,0,0,0-5.75-10.71,23.12,23.12,0,0,1-4.79-7.17,79.37,79.37,0,0,0-9.82-16.18,82.94,82.94,0,0,1-2.45,8c-1.05,2.46-2.55,4.73-3.76,7.14a21.07,21.07,0,0,0-1.58,4,6.34,6.34,0,0,0,.77,5.39c2.21,3.19,4.62,6.25,6.81,9.46s4.23,6.72,7,9.6c.39.42.8.82,1.22,1.2h0a1.28,1.28,0,0,1,.33.53c1.56,5.14,6.24,8.06,8.94,12.47a28.54,28.54,0,0,0,4.54,5.39c1.73,1.67,3.57,3.26,5.27,4.92,3.4,3.33,5.43,3.68,9.42,1.51,1.85-1,3.56-2,5.77-1.87a4.62,4.62,0,0,0,2.39-.52c5.85-3.12,11.76-6.2,16.78-10.58,3-2.58,5.43-5.74,9.64-6.42a3.53,3.53,0,0,0,1.54-1c2-1.78,4.2-3.21,6-5.29,1.67-1.92,4.51-2.75,6.64-4.32,2.49-1.84,4.74-4,7.14-5.95a2.71,2.71,0,0,1,3.16-.22,1.38,1.38,0,0,1,.54.82c.8,3.57,3.56,6,5,9.21.82,1.88,1.51,3.81,2.22,5.74,1.56,4.27,2.91,8.62,4.69,12.8,2.42,5.69,5.89,10.9,7.2,17.09a15.55,15.55,0,0,0,4.09,7.58,21.21,21.21,0,0,1,4.35,7.44c2.79,7.11,6.58,13.76,9.82,20.65a17.25,17.25,0,0,0,3.07,4.78,12.92,12.92,0,0,0,1.67,1.48,18.64,18.64,0,0,0,0-3.53c-.51-2.21-1.23-4.37-1.81-6.57-.85-3.19-1.31-6.54-2.57-9.56a74.52,74.52,0,0,1-3.31-11.92c-.74-3.21-1.65-6.39-2.55-9.56-.5-1.76-1.12-3.49-1.7-5.24-1.21-3.67-3.71-7-3.28-11.13,0-.33-.35-.75-.63-1a7.88,7.88,0,0,1-1.88-4.48,14.67,14.67,0,0,0-1.69-4.62,45.74,45.74,0,0,1-5.65-16.37c-.91-6.14-5.07-9.71-8.3-14.11a2.94,2.94,0,0,0-.41-.47,2.79,2.79,0,0,0-1.62-.88C350.63,364.09,346.63,362.78,343,364.79Z" fill="#e5798b"/>
    <path d="M367.62,370c.25,2.82.6,5.63,2.28,8.11,1.52,2.24,3,4.46,2.73,7.39a3.21,3.21,0,0,0,.92,2.21c1.58,1.58,1.95,3.52,2.26,5.6a8.91,8.91,0,0,0,1.36,3.42,2.3,2.3,0,0,0,.45.49c.53.46,1.29.83,2.11,1.42a55.51,55.51,0,0,1,2.59-5.32,15.48,15.48,0,0,0,2.07-10.69,7.14,7.14,0,0,1,.27-3.6c1.29-3.09-.41-5.65-1.27-8.31a2.24,2.24,0,0,0-.61-.87,3.67,3.67,0,0,0-1.71-.91C376.62,368.11,372.1,367.17,367.62,370Z" fill="#ed7e69"/>
    <path d="M139.75,377.66a10.65,10.65,0,0,1,1,3.51,30.29,30.29,0,0,0,1.09,4.81c2.64,6.22,3.26,12.78,3.67,19.41a20.45,20.45,0,0,0,1,5.46c1.24,3.45,2.65,6.76,3.19,10.51.34,2.36,1.31,4.71,1.36,7.22a37.87,37.87,0,0,0,2.89,14.54,16.24,16.24,0,0,1,1,7.26,44.24,44.24,0,0,0,.94,11.66c.59,2.56,2,4.89,1.38,7.7a1.73,1.73,0,0,0,.58,1.23.87.87,0,0,0,.33.21c.7.2,1.85.23,2.24-.19a22.4,22.4,0,0,0,3.67-4.87c1.08-2.13,2.31-4,4.59-4.79,2.13-.76,3.15-2.39,4.36-4.13a38.68,38.68,0,0,1,6.43-7.47A64.08,64.08,0,0,0,189,439.26c3-3.95,5.54-8.35,9.09-11.69,5.4-5.08,7.27-11.74,10.38-18.35-1.8-.9-3.23-2.23-4.68-2.25-5-.05-9.15-2.51-13.66-3.93-4.76-1.49-9.3-3.45-13-7a5.89,5.89,0,0,0-2.59-1.66c-5-1.14-8.77-4.59-13.11-6.95-4.91-2.67-9.73-5.5-13.6-9.63-.56-.59-1.09-1.2-1.6-1.85a14.59,14.59,0,0,0-1.31-1.42c-1.4-1.36-3.09-2.59-4.83-4.15C138.53,373.4,138.27,375.45,139.75,377.66Z" fill="#e5798b"/>
    <path d="M232.81,468a3.27,3.27,0,0,0-1.21,3.27c.57,4.49,1.13,9,1.7,13.5A23,23,0,0,0,233,489a41.27,41.27,0,0,0,1.24,6.6.84.84,0,0,0,.25.36,4,4,0,0,0,1.6.72c.23,0,.9-.8,1-1.3,1.26-7.51.37-15.09.55-22.64a11.43,11.43,0,0,0-1.15-4.13,1.86,1.86,0,0,0-.25-.46A2.52,2.52,0,0,0,232.81,468Z" fill="#e5798b"/>
    <path d="M358.79,421.46c-1.51,5.13-3.28,10.21-4.33,15.44a86.88,86.88,0,0,1-4.13,13.55,145.49,145.49,0,0,0-4.73,15.26c-.7,2.77-.44,5.79-2.63,8.09-.16.17.27,1,.6,1.43a1.17,1.17,0,0,0,1.11-.16,32.6,32.6,0,0,0,2.88-4c2.9-5,5.42-10.25,8.64-15a23.3,23.3,0,0,0,4.22-10.15,13.15,13.15,0,0,1,1.68-4.52c2.14-4.17,4.06-8.44,1.85-13.37-1-2.28-1.54-4.78-3.23-6.64a7.13,7.13,0,0,0-.79-.76C359.41,421,358.88,421.16,358.79,421.46Z" fill="#ed7e69"/>
    <path d="M338.81,387.41a8.62,8.62,0,0,0-2.39,2.63,2,2,0,0,0,.26,2.49,3.17,3.17,0,0,0,.79.58,11.92,11.92,0,0,0,8.38.77,3.64,3.64,0,0,0,2.69-4.75,8.78,8.78,0,0,0-2.18-4.05,6.83,6.83,0,0,0-1.38-1C342.68,385.28,340.66,386.21,338.81,387.41Z" fill="#ed7e69"/>
    <path d="M543.92,183.17l-.38.51c3.2,2.48,6.34,5.06,9.39,7.72A38.13,38.13,0,0,0,543.92,183.17Z" fill="#b394ba"/>
    <path d="M645.78,154.35c-1.28-3.09-4.18-5.54-6.49-8.17a50.15,50.15,0,0,0-9.45-8.9c-2.8-4.91-7.05-8.43-11.43-11.83a30.54,30.54,0,0,0-3.29-2.77c-2.18-1.24-4.35-2.34-5.45-4.83-.3-.67-1.21-1.07-1.84-1.6-3.76-3.16-8.4-5.13-11.76-8.86-.77-.85-2.16-1.15-3.27-1.69-4.26-2-8.84-3.54-11.87-7.57a5.93,5.93,0,0,0-2.5-1.77c-5.72-2.31-11.46-4.59-17.25-6.75a33.78,33.78,0,0,0-6.54-1.75c-1.58-.25-3.53-.45-4.81.25-2.69,1.48-5.78.93-8.35,2.06s-4.7,3.26-7.13,4.78c-4.2,2.64-8.58,5-12.69,7.79-2,1.37-4,2.26-6.34,1.56a11.27,11.27,0,0,0-6.09.27c-6.74,1.63-11.56,6-16.19,10.78-4.3,4.43-8.91,8.56-12.2,13.89-.5.81-1.69,1.17-2.48,1.84a39.65,39.65,0,0,0-10.7,13.54c-2,4.47-4.94,8.08-8,11.73-2,2.38-3.85,4.86-5.67,7.36-1.94,2.67-4.18,5.23-5.55,8.18a112,112,0,0,1-9,15.45c-2.83,4.19-4.39,9.25-6.33,14-1.49,3.64-2.63,7.43-5.17,10.55a4.53,4.53,0,0,0-.82,1.66,17,17,0,0,1-3.58,7.17c-.39.46-.91,1.07-.88,1.6.18,3.77-2.55,6.47-3.5,9.75-1,3.6-3.87,6.39-4.15,10.28a5.58,5.58,0,0,1-1.56,2.63,8,8,0,0,0-2,6.3A7.72,7.72,0,0,1,409.5,257c-1.38,1.77-3.11,2-4.79.41A5.47,5.47,0,0,1,403,255c-.49-2.36-1.91-4.1-3.35-5.86-2.48-3-5.29-5.79-7-9.41A8.61,8.61,0,0,0,390.1,237a30.41,30.41,0,0,1-8.9-11.67,6.4,6.4,0,0,0-1.83-2.45c-2.71-2.06-4.22-5.06-6.32-7.58s-4.93-4.36-7.43-6.52a6,6,0,0,1-.84-.91c-3.8-4.89-7.72-9.69-11.34-14.71a21.9,21.9,0,0,0-5.43-5.81c-2.89-1.94-5.42-4.45-6.32-8.5l4.49-4.26a65.46,65.46,0,0,1,6.63,2.3c4.67,2.23,9.89,2.78,14.61,4.85a3.11,3.11,0,0,0,1.84.09c2.73-.7,5.31,0,7.94.65a33.24,33.24,0,0,0,4.91.57c2,.2,4.08.32,6.11.59,4.34.57,8.3.39,10.47-4.34a13.17,13.17,0,0,1,1.91-2.43,8.73,8.73,0,0,0,1.86-5.77c0-5.15.08-10.31.18-15.47.09-5,.21-9.93-2.06-14.58a4.53,4.53,0,0,1-.48-2.41c.47-3.66-.75-6.91-2.12-10.17a10.53,10.53,0,0,1-1.15-4.18c.19-5-2.59-9-4.37-13.3-1.22-3-2.72-5.43-5.88-6.76-1.23-.52-2.19-1.87-3.08-3a6.81,6.81,0,0,0-5.34-2.76c-3.48-.12-6.93-1.23-10.48-.1a13,13,0,0,1-4.32.13,2.75,2.75,0,0,1-2.64-2.24,6.7,6.7,0,0,1-.25-3.6,16.29,16.29,0,0,0,.82-6.7,8.15,8.15,0,0,1,.65-3.62,23.25,23.25,0,0,0,1.54-6c.59-3.66,1-7.56,2.64-10.8a27.82,27.82,0,0,0,3-10.63A14.1,14.1,0,0,1,373,45.46a6.92,6.92,0,0,0,1.79-3.23c1-5.16,3.58-9.5,5.94-14.07,2.49-4.82,4.31-9.86,9-13.1a2.38,2.38,0,0,0,.59-3.34,3,3,0,0,0-3.1-1.62,5.06,5.06,0,0,0-4,2.58c-.72,1.23-1.36,2.67-2.45,3.46a11.07,11.07,0,0,0-3.93,6.15c-.74,2.39-1.47,4.73-3.27,6.62a11.15,11.15,0,0,0-1.52,2.68,43.84,43.84,0,0,0-3.25,9.94c-.53,2.34-2.3,4.38-3.25,6.66s-1.53,4.63-2.29,7a30.45,30.45,0,0,0-1.17,3.45c-.92,4.64-1.72,9.3-2.63,14a8.85,8.85,0,0,1-.87,2.31c-2.1,4.14-1.39,9-3.24,13.15,1.25,4-1.65,7.57-1.11,11.56.24,1.79-1.23,3-3,3.43-.6.15-1.23.22-1.84.33a39.7,39.7,0,0,0-13.91,5,79.07,79.07,0,0,1-8.3,4.25,16.08,16.08,0,0,1-3.23.78,5.37,5.37,0,0,1-2-5.31,11.38,11.38,0,0,0-.15-5.5,13.89,13.89,0,0,1-.09-4.28c.06-1.44.59-2.95.31-4.3-.87-4,.41-8.3-1.4-12.23a5.06,5.06,0,0,1,0-2.45c.95-8.22,1.88-16.43,1.47-24.74a18.72,18.72,0,0,1,.85-7.32c2.46-6.5,3-13.29,3.6-20.07.25-2.76.6-5.32,2.35-7.55.5-.65,1.2-1.38,1.24-2.11.3-4.37,2.82-7.69,4.93-11.24a6.89,6.89,0,0,0,.71-3.56,2.62,2.62,0,0,0-4-2.2c-1.15.82-2.71,1.87-2.93,3-.79,4.17-2.78,7.68-5,11.19a7.25,7.25,0,0,0-.61,3.63,10.91,10.91,0,0,1-1.77,6.47c-1.62,2.3-1.8,5-2,7.71A62.29,62.29,0,0,1,318.15,41c-1,5.06-2.51,10.09-1.83,15.31a21.11,21.11,0,0,1-1,11A8.57,8.57,0,0,0,315,73.4a20.69,20.69,0,0,1,.23,11,10.72,10.72,0,0,0-.1,3.66c.41,2.86,1.59,5.75,1.36,8.54s-.74,5.63.42,8.39c-1.16,3.16-.12,6.09.92,9a5.07,5.07,0,0,1-.53,4.77c-2.7,3.89-5.44,7.75-8.51,12.1-.23,1.18-.48,3-.95,4.8-1.58,6-.66,11.27,3.51,16.12,2.5,2.91,4.33,6.4,6.85,10.2-3.88,2.28-5.48,6.33-9.07,8.62a18.51,18.51,0,0,0-4,3.88c-2.65,3.18-5.14,6.48-7.76,9.69s-6.72,5.55-8.18,9.92c-.17.51-.86.88-1.36,1.24a12.48,12.48,0,0,0-4.65,7.12c-.9,3-2.19,5.84-5.2,7.44-1.82,1-2.24,2.84-3,4.57-1.17,2.87-2,6.1-3.89,8.41-2.94,3.57-4.92,7.62-7.23,11.51-1.8,3-3.72,5.94-3.9,9.67-.07,1.36-1.06,2.66-1.56,4-1.31,3.46-3,6.85-3.71,10.44a26.52,26.52,0,0,1-2.32,7c-.81,1.64-1.89,3.57-1.66,5.22.56,4.14-1.42,7.59-2.1,11.64-3,1.37-6,2.81-9.06,4.07-2.87,1.18-5.79,2.27-8.75,3.19-2.55.79-3.79.13-5.08-2.23a9.54,9.54,0,0,1-.49-1.14c-2.32-6.21-7-10.58-11.84-14.7-3.52-3-7.78-1.86-9.65,2.39a15.89,15.89,0,0,0-1.48,5.35c-.24,3.9-.63,7.93,0,11.73s-.35,7.28.19,11.55c-4,.13-6.88,2-9.45,4.44a5,5,0,0,1-2.23,1c-3.09.77-5.61,2.58-8.25,4.23a55.19,55.19,0,0,1-7.11,3.81c-4.76,2.09-8.86,5.25-13.11,8.09-3.11,2.08-6.41,3.65-9.33,5.56-4.88-1.82-8.85-4.15-11-8.87a9.74,9.74,0,0,0-3-3.08c-6.17-4.82-12.91-9-17.46-15.63-1-1.49-2.81-2.44-4.07-3.8-3.36-3.63-7.06-3.85-11-1.58-3.46,7.32-2.9,15.23-4.93,22.6a4,4,0,0,0,0,1.85c1.69,7.67,1.21,15.63,3.08,23.28.59,2.39,1.33,4.76,1.93,7.15a11.35,11.35,0,0,1,.57,3.65,16.55,16.55,0,0,0,1.74,9.6,5.93,5.93,0,0,1-1.54,7.4,31.33,31.33,0,0,0-7,8.56c-.81,1.36-2.38,2.25-3.56,3.4s-2.75,2.13-3.34,3.53c-1.7,4-5.77,6.58-6.39,11.16-.07.55-.67,1-1.06,1.51-3,3.72-5.89,7.46-8.92,11.13s-4.82,8.6-8.64,11.93c-1.19,1-1.77,2.78-2.65,4.18a11.7,11.7,0,0,1-2.07,3.05c-1.89,1.52-2.73,3.52-3.61,5.66-1.74,4.23-3.89,8.24-7.65,11.13a7.76,7.76,0,0,0-3,5.28,13,13,0,0,1-4.63,8.57c-4.43,3.38-5.47,8.57-7.95,13-.88,1.56-1.47,3.32-2.53,4.87-1.4,2-2.64,4.2-3.85,6.37-.6,1.07-.68,2.55-1.49,3.37a11.73,11.73,0,0,0-3.1,6.6,6.65,6.65,0,0,1-1.07,2.23c-2.34,3.66-4.73,7.29-7.08,10.94-.78,1.22-2,2.42-2.14,3.72-.5,5-3.76,8.68-6,12.84-1.35,2.55-2.92,4.91-3.3,7.95a18.42,18.42,0,0,1-2.2,7c-2.29,3.81-2.87,8-3.88,12.14A11.12,11.12,0,0,0,2.2,561.8a3.86,3.86,0,0,0,4.86,1.75c2.63-1.08,5.19-.89,7.92-.6,4.38.48,8.62,0,12.37-2.89,1.4-1.08,3.35-1.48,5.1-2.06,3.12-1,6.39-1.69,9.37-3,4.14-1.84,8-4.2,12.11-6.25a7.68,7.68,0,0,1,3.52-1.06c3.14.16,5.57-1.38,8.07-2.84,2.66-1.56,5-3.47,8-4.68,3.2-1.31,6-3.51,9-5.37,3.33-2.08,6.62-4.24,10-6.32a4.24,4.24,0,0,1,2.27-.89c3.44.39,6.4-1.5,9.59-1.9,4.31-.55,8.1-3.27,12.62-2.71.69.08,1.46-.72,2.22-1a13.87,13.87,0,0,1,3.5-1.17,23.08,23.08,0,0,0,7.68-2.28c1.81-.87,3.87-1.56,6-.43a12.88,12.88,0,0,1,2.49,8.07c0,3.9-.14,7.87,2.49,11.29a6.38,6.38,0,0,1,.81,3.57c.07,4.39,1.36,8.5,2.4,12.71a123.56,123.56,0,0,0,4.7,16,9.61,9.61,0,0,1,.25,1.21c1,4.21,1.93,8.41,2.93,12.6a4.87,4.87,0,0,0,.41,1c.13.22.26.44.4.65a4.09,4.09,0,0,0,.81.86,6.4,6.4,0,0,0,1-.19l.55-.21c.2-.09.4-.2.59-.3l.51-.33.69-.56.27-.26.1-.09c.22-.24.43-.49.64-.74a20.06,20.06,0,0,0,2.12-3.16c.09-.47.19-.93.28-1.39.43-2.21.87-4.43,1.41-6.62a28.55,28.55,0,0,0,.77-10.46,26.9,26.9,0,0,1,0-7.39,14.66,14.66,0,0,0-.25-6.72,16.67,16.67,0,0,1-.47-8.61c.82-3.45,1.45-6.86.17-10.35a2.71,2.71,0,0,1,0-1.84c1.64-4,.32-7.72-.54-11.55a26,26,0,0,1-.29-4.33,4,4,0,0,1,2.83-4.31,56,56,0,0,0,7.43-3.13,27.54,27.54,0,0,1,6.86-2.76c4-1,7.93-2.32,11.16-5.19a9.41,9.41,0,0,1,3.85-1.9c4.76-1.18,8.7-4,12.52-6.72,3-2.15,5.35-5.08,9.24-5.88a4,4,0,0,0,2.34-1.9c1.63-3,4.29-3.59,7.17-3.79,2.11-.16,1.77,11.39,2.09,13,.76,3.8,1.61,7.63,2.63,11.37,1.52,5.58,0,11.58,1.34,17.24.36,1.58.54,3.13,1,4.69s1,3.16,1.33,4.69c.66,3.18-.87,6.34,1.8,8.92s4.15-2.63,4.79-4.45a20.22,20.22,0,0,0,.66-4c.25-1.49,1.18-2.74,1.26-4.27a28.34,28.34,0,0,1,.12-4.13c.23-1,.95-2,1.1-3.17a12.56,12.56,0,0,0,0-1.84,7.61,7.61,0,0,1,.47-2.44c.5-1.93-.07-3.72-.23-5.61-.19-2.36-.09-4.8-.06-7.16.07-6.8,1-13.6-.39-20.37a4,4,0,0,1-.15-1.84c1.07-3.7.4-7.45,0-11.1a9.44,9.44,0,0,1,2.86-8.41c4.8-4.84,8.11-11,13.47-15.34a3.5,3.5,0,0,0,1.15-1.43c1.15-3.47,4.11-5.65,5.95-8.63,2.58-4.17,5.64-8,7-12.88A9.91,9.91,0,0,1,275,415.5a4.88,4.88,0,0,1,1,0,5.31,5.31,0,0,1,1.71.67c3.67,3.1,7.84,2.11,11.84,1.27a50.07,50.07,0,0,0,8.18-2.89c3.78-1.53,8-2.24,10.6-6,.53-.77,1.74-1.08,2.65-1.58,5.25-2.89,10.71-5.47,15.06-9.77a4.68,4.68,0,0,1,1.6-.7c2.58,1,5.15,1.81,7.53,3,4.25,2.11,8.36,1.85,12.54-.11a14.47,14.47,0,0,1,2.75-.67c1.72,2.94,3.15,5.68,4.86,8.23a5.42,5.42,0,0,1,.63,5.21c-2.22,6.89-4.68,13.73-5.57,21a4.64,4.64,0,0,1-.94,2.26c-2.33,2.89-3,6.33-3.46,9.84-.31,2.32-.47,5-1.69,7a14.63,14.63,0,0,0-1.36,2.41c-1,2.66-1.61,5.44-2.89,8-1.14,2.31-2.44,4.55-2.48,7.16,0,3.32-3.45,7.39-.91,10.37,3.08,3.62,7.53,2.78,11.09.4a19.92,19.92,0,0,0,7.63-9.72c1.32-3.22,1.92-6.69,4.4-9.37a3,3,0,0,0,.64-1.72c.31-4.56,3-8.13,5.12-11.86,1.14-2,2.22-3.83,2.35-6.2,0-.59.87-1.14,1.3-1.67,2.26,1.22,2.37,3.22,2.81,5,1.1,4.27,3.57,7.91,5.92,11.45a73.88,73.88,0,0,1,4.48,7.45c.59,1.16,1.14,2.55,1.85,3.79h-.08c.34.7.72,1.38,1.12,2.06l1.41.6a9.35,9.35,0,0,0,2.1,1c1.57.54,3.8,1.23,5.35-.17.83-.74.6-1.24.86-2.28.14-.55.59-.9.53-1.55s-.4-.61-.52-1a24.82,24.82,0,0,1-.74-5.67c-.09-1.86-1.26-2.89-1.23-4.86A30.74,30.74,0,0,0,392,449c-.31-1.47-.31-3-.61-4.43a44.25,44.25,0,0,0-.9-4.59c-.55-1.76-1.32-3.45-1.8-5.23-.71-2.66-.92-5-1.9-7.72a54.72,54.72,0,0,1-3.56-18.07,14.32,14.32,0,0,1,.53-4.28,154.39,154.39,0,0,1,4.79-14.73c2.84-6.82,1.61-13.48-.09-20.12a10.24,10.24,0,0,0-9.64-7.51,41.28,41.28,0,0,0-9.19.85c-3.22.84-5.48,0-8-1.87a19.34,19.34,0,0,0-10.45-3.48c-5.05-.32-9.38,1.35-13.47,3.93a35.77,35.77,0,0,1-7.29,3.31,6.38,6.38,0,0,1-7.32-1.67c-3.12-3.15-7.89-4.67-9.15-9.73-.28-1.11-2.16-1.81-3.26-2.74-3-2.53-6.18-4.88-7.51-8.89a6.28,6.28,0,0,0-2.18-2.95c-2.77-2-4.46-4.76-6.58-7.26a25.71,25.71,0,0,1-4.73-9.3c-2-6.25-3.08-12.87-7.74-18a6,6,0,0,1-.91-1.62c-.66-1.49-.21-3.25,1.3-3.6,3.05-.72,5-2.66,6.88-4.95A13.1,13.1,0,0,1,292,292c8.86-6.06,15.94-13.64,20.43-23.5a7.24,7.24,0,0,1,2.19-2.95c2.42-1.67,3.4-4,4-6.73a7.3,7.3,0,0,1,5.14-5.72c.65.72,1.45,1.22,1.7,1.93,1.89,5.28,6.25,9.2,8,14.57.29.89,1.33,1.54,2,2.29,3.55,3.72,6.95,7.49,9.07,12.34a12.83,12.83,0,0,0,6.57,7.13,12.58,12.58,0,0,1,4.67,3.95c2.08,2.81,4.61,5.17,6.88,7.77A25.28,25.28,0,0,0,372.87,310a32.8,32.8,0,0,0,12.05,2.21c4.62,0,9,0,13.38-1.53,2.35-.81,4.75-1.45,7.11-2.21,3.43-1.09,6.45-2.7,8.29-6.07a7.28,7.28,0,0,1,2.84-3.19c4.44-2,7.08-6.37,11.55-8.25a7.93,7.93,0,0,0,2.36-2c5.27-5.51,10.59-11,15.73-16.61,2-2.15,3.68-4.48,6.61-5.46a2.85,2.85,0,0,0,1.36-1.19c2.24-3.75,5.72-6.4,8.81-9.26,6.14-5.68,11.12-12.25,16-18.93a38.35,38.35,0,0,1,8.24-8.34,21.38,21.38,0,0,0,2.95-2.24,59.31,59.31,0,0,1,10.12-9.07,7.66,7.66,0,0,0,2.52-2.7,74.8,74.8,0,0,1,10.65-14.41c4-4.46,7-9.72,11.58-13.7a5.16,5.16,0,0,0,1.5-2.62c1-4.11,3.85-6.63,6.67-9.22,2.72,1.75,3.59,2.3,3.64,3.53,2.29,1.6,4.52,3.26,6.73,5l.38-.51a38.13,38.13,0,0,1,9,8.23l.1.08A270.79,270.79,0,0,1,582,220.93a217.9,217.9,0,0,1,13.62,17.82c1.75,1.44,3.64,2.72,5.51,4a5,5,0,0,0,7.93-3.51,17.22,17.22,0,0,0-.38-5.53,159.51,159.51,0,0,0-4.82-19.17c-1.82-5.46-2.88-11.15-6.21-16a4.09,4.09,0,0,1-.62-1.74,13.63,13.63,0,0,0-2.85-6.12,25,25,0,0,1-4.51-11.42c-.14-1-.14-2.29-.74-2.95-3.11-3.43-3.88-8.12-6.66-11.8-2.4-3.18-5-6.61-5-11.11,2.31-1.9,4.39-.62,6.45.15,5.21,1.94,10.37,4,15.61,5.86a30,30,0,0,0,5.43,1.19c3.73.58,7.4,1.53,10.45,3.72a18.92,18.92,0,0,0,7.73,3.7,12,12,0,0,1,3.33,1.56c1.09.58,2.07,1.55,3.22,1.8,3.21.69,6.53,1,9.34,2.91,4.22-.17,7.49,1.86,10.7,4.31,2.39,1.82,4.38.69,4.73-2.22.46-3.89-2.14-7.08-2.33-10.81A46.59,46.59,0,0,1,645.78,154.35ZM539.86,97.51a11.9,11.9,0,0,0,4.35-2.09,9.82,9.82,0,0,1,7.08-1.59c1.82.26,3.68.34,5.52.49.41,0,1-.13,1.21.07,3.27,2.54,7.51,2,11.06,3.51a21.19,21.19,0,0,1,4.24,2.48c5.46,4.08,10.84,8.26,17.17,11a23,23,0,0,1,4,2.79c.83.6,1.53,1.65,2.42,1.82a6.94,6.94,0,0,1,3.69,1.89,9,9,0,0,1,1.51,2.06,2,2,0,0,0,.35.47,6.71,6.71,0,0,0,1.56,1.06c4.73,2.56,8.7,6.11,12.62,9.71.38.35.74.71,1.1,1.08.72.73,1.42,1.49,2.15,2.22.36.36.73.72,1.11,1.06.68.62,1.34,1.27,2,1.93,1.29,1.33,2.53,2.7,3.88,4a24.86,24.86,0,0,0,2.12,1.83,18.63,18.63,0,0,1,1.81,1.63c1.7,1.76,3.15,3.86,4.75,5.74.4.47.67,1.1,1,1.57a2.08,2.08,0,0,0,.43.41,10.92,10.92,0,0,1,1.64,1.35c3.44,3.37,4.21,8.22,6.08,12.45a2.39,2.39,0,0,1-.39,2.18,2.68,2.68,0,0,1-2.23,0c-5.76-2.25-11.47-4.64-17.24-6.87a14.47,14.47,0,0,0-4.8-1,17.84,17.84,0,0,1-9.47-2.61c-4.82-3.13-10.42-3.84-15.65-5.68-4.67-1.64-9.38-3.15-14.11-4.61a27,27,0,0,0-5.39-1.16c-2.4-.24-4.46-.78-5.77-2.25a6.57,6.57,0,0,1-1.49-3.81,5.7,5.7,0,0,0-1.65-3.41,9.09,9.09,0,0,0-1.88-1.46,20,20,0,0,1-4.31-3.54c-2.12-2.23-3.93-4.78-6.09-7-.54-.53-.89-1.46-1.36-2a1.1,1.1,0,0,0-.52-.36c-4.27-1.18-6.19-5.45-9.93-7.26h0a13.7,13.7,0,0,0-1.92-2.31c-3-2.91-7-4.1-11.12-5.22-.71-.19-1.29-.91-2.47-1.8h0C530.6,101.56,534.38,98.4,539.86,97.51ZM350.07,196.34a13.4,13.4,0,0,1,2.55,2.24,15.51,15.51,0,0,1,2,2.78c2.84,5.16,7.28,8.94,11,13.32a70.6,70.6,0,0,1,8,11,31,31,0,0,0,5.36,6.73h0l1.32,1.3a9.51,9.51,0,0,1,2.79,4.65,6.16,6.16,0,0,0,1.51,2.62,7,7,0,0,0,1.41,1.18,15.13,15.13,0,0,1,2.72,2.2,52.6,52.6,0,0,1,3.67,4.43c2,2.51,3.09,5.67,5.19,8.08a10.06,10.06,0,0,0,2.51,2.09h0c1.76,3.3,3.37,6.66,3.78,10.44a3.56,3.56,0,0,1-.31,2.39c-2,2.43-1.93,5.33-2.32,8.18-.14,1.06-1,2-1.64,3.17a6.52,6.52,0,0,1-1.54-1,11.18,11.18,0,0,1-2.5-3.95,39.92,39.92,0,0,0-7.54-11.29,25.8,25.8,0,0,1-2.4-3.59c-.81-1.15-1.67-2.27-2.57-3.36a2.13,2.13,0,0,0-.21-.22c-.31-.3-.7-.56-1-.84a1.21,1.21,0,0,1-.44-.67,10.79,10.79,0,0,0-3.08-5.6c-.5-.52-1-1-1.58-1.5h0c-1.77-1.56-2.36-3.94-4-5.73a7.55,7.55,0,0,0-.76-.73,12.08,12.08,0,0,1-1.42-1.36,22.82,22.82,0,0,1-3.33-5c-2.57-5.12-6.35-9.2-10.29-13.16l-1.69-1.69h0c-1.75-1.75-3.35-3.65-5.06-5.43a25.27,25.27,0,0,0-5.79-4.66,3.08,3.08,0,0,1-.61-.43,7.82,7.82,0,0,1-1.43-1.86,17.27,17.27,0,0,0-3.09-4,11.88,11.88,0,0,0-1.33-1.09,7.26,7.26,0,0,1-.78-.65c-1.62-1.58-1.94-3.64-1.43-6,.84-3.82,1.65-7.64,2.56-11.9.89.23,2.14.17,2.56.73h0a27.16,27.16,0,0,0,2,2.38A39.46,39.46,0,0,0,350.07,196.34ZM264.65,405a22.44,22.44,0,0,1-1.93-1.69,22.44,22.44,0,0,0,1.93,1.69,9,9,0,0,1,.8.71A9,9,0,0,0,264.65,405Zm-5.48-7.33h0c-.32-.28-.61-.57-.9-.87A12.32,12.32,0,0,0,259.17,397.68ZM257.93,318a18.32,18.32,0,0,1,1.27-6.67c1.14-3.35,2.26-6.65,2-10.28a8,8,0,0,1,.62-3,2.55,2.55,0,0,1,3.42-1.77,12.05,12.05,0,0,1,5.47,3.31,12.05,12.05,0,0,0-5.47-3.31,2.55,2.55,0,0,0-3.42,1.77,8,8,0,0,0-.62,3c.3,3.63-.82,6.93-2,10.28a18.32,18.32,0,0,0-1.27,6.67,27,27,0,0,1-1.84,12.14c-1,2.42-.36,4.62,1.1,7,3.15,5.09,5.91,10.43,8.55,15.81s4.21,11.55,8.14,16.51c1.89,2.4,3,5.41,4.57,8.08a6.66,6.66,0,0,0,.93,1.2,6.66,6.66,0,0,1-.93-1.2c-1.57-2.67-2.68-5.68-4.57-8.08-3.93-5-5.44-11-8.14-16.51s-5.4-10.72-8.55-15.81c-1.46-2.37-2.07-4.57-1.1-7A27,27,0,0,0,257.93,318Zm18.76-11.31c-.19-.21-.54-.39-.74-.63h0C276.15,306.25,276.5,306.43,276.69,306.64Zm-3.42-24.06a30.14,30.14,0,0,0-4.86,5.57c-1.11,1.55-1,3,.11,4.09-1.09-1.06-1.22-2.54-.11-4.09a30.14,30.14,0,0,1,4.86-5.57c5.42-4.56,10.37-9.44,13.3-16.05a10.65,10.65,0,0,1,2.08-3c1.34-1.35,2.6-2.66,2.74-4.69,0-.4.11-1,.37-1.16,3.75-2.44,4.41-6.8,6.47-10.29.83-1.39,1.49-2.88,2.25-4.32,2.76-5.27,5.5-10.57,8.37-15.79.43-.79,1.51-1.22,2.67-2.1h0c-1.16.88-2.24,1.31-2.67,2.1-2.87,5.22-5.61,10.52-8.37,15.79-.76,1.44-1.42,2.93-2.25,4.32-2.06,3.49-2.72,7.85-6.47,10.29-.26.18-.35.76-.37,1.16-.14,2-1.4,3.34-2.74,4.69a10.65,10.65,0,0,0-2.08,3C283.64,273.14,278.69,278,273.27,282.58Zm75.44-127.06c-3.81,4.16-8.64,4.14-13.23.84-4.2-3-4.22-7.46-4.49-11.61-.22-3.48,5.6-9.1,9.34-9.87a22.73,22.73,0,0,1,4.94-.39c2.22,0,4,.86,4.91,3.1,1,2.6,3.81,4.66,2.21,8C353.7,149.83,351.25,152.73,348.71,155.52Zm-27,37.09c1.18-2.38,2.5-4.69,3.72-7.05a55,55,0,0,0,4.94-15.32c1-.07,1.75-.17,2.53-.18,2.07,0,3.61.21,4.31,1-.7-.82-2.24-1.06-4.31-1-.78,0-1.55.11-2.53.18a55,55,0,0,1-4.94,15.32c-1.22,2.36-2.54,4.67-3.72,7.05a3.19,3.19,0,0,0,.65,4.12A3.19,3.19,0,0,1,321.67,192.61Zm65.46-75.51c1.32,1.27,2.74,2.45,4.39,3.9-.95,3.71-1.71,6.66-2.47,9.67-1.87,1-3.6,2.13-5.44,3-2.33,1.1-5.92-.11-6.83-2.51-2.25-5.9-1.44-11.73,4.36-15C383.59,114.73,385,115,387.13,117.1ZM317.76,151c-1.14-1.46-2-3.15-3.24-4.52a6.85,6.85,0,0,1-1.83-6.27c.31-1.62.38-3.28.59-4.92.08-.6.06-1.41.43-1.76,2.17-2.07,2.74-5.07,4.38-7.37a17.67,17.67,0,0,1,5.45-4.91c3.39-2,7.11-3.32,10.65-5,2.42-1.16,4.76-2.51,7.17-3.7a22.32,22.32,0,0,1,4.54-1.88,9.83,9.83,0,0,0,4.54-1.81,3.23,3.23,0,0,1,2.2-.9c3.57.57,6.41-1.43,9.47-2.56,7.3-2.68,14.18-1.79,20.76,2.13h0c.24.14.21.73.51,1.9-1.34.27-2.32.48-3.31.66a7.82,7.82,0,0,0-5.05,3.34c-1.09,1.51-2.14,3.06-3.35,4.47-3.4,4-3.15,8.4-1.34,12.8a22.42,22.42,0,0,0,3.83,5.61,9.71,9.71,0,0,0,.75.81,9.07,9.07,0,0,0,6.91,2.44c3.39-.1,6.57-.15,9.28-2.53a6.69,6.69,0,0,1,2-.87,4.12,4.12,0,0,1,1.73,1.16,8,8,0,0,1,1.38,2.76,10.8,10.8,0,0,1,.65,3c.33,6.81.63,13.61.83,20.42,0,.64-.68,1.31-1.27,2.36a40,40,0,0,0-3.84-3.58,2,2,0,0,0-3.21,1.94,13.71,13.71,0,0,0,1.66,3.93,3.3,3.3,0,0,0,.46.6c.34.38.75.72,1.12,1.09a4.62,4.62,0,0,1,.52.57c1.58,2.06,1.57,5.56.06,6.87a5.52,5.52,0,0,1-6.89-.09,5,5,0,0,1-.78-.81,10.41,10.41,0,0,0-.82-.94c-2-2.07-4.65-3.24-6.86-5-.18-.14-.73.19-1.46.4V177c-1.7.13-3.14.54-4.47.3-3.86-.71-7.65-1.86-11.52-2.49-2.85-.46-4.6-2.79-7.11-3.6-2.34-.74-4.92-.73-7.25-1.48-3-.95-5.26-3.11-8-5.2h0c4.82,0,4.82,0,10.18-2.7,2.33-1.18,5.37-1.34,6.36-4.44,3.88-2.74,3.74-7.13,4.37-11.11a10.36,10.36,0,0,0-.83-4.82,19.45,19.45,0,0,0-5-7.7,25,25,0,0,0-10.25-5.54,2.15,2.15,0,0,0-1.21-.14c-3.89,1.33-8.24,1.6-11.55,4.26a13.16,13.16,0,0,0-4.72,9.21c-.42,4.93-.15,10,2.37,14.5.49.88,1.06,1.71,1.57,2.52-1.15,1.33-2,.62-2.83,0-2-1.47-4-2.94-5.88-4.53a16.32,16.32,0,0,1-1.53-1.47C318.66,152.07,318.2,151.53,317.76,151ZM254.9,275.42a10.51,10.51,0,0,1,.84-3.61c2.62-6.11,3.53-12.73,5.68-19a41.54,41.54,0,0,1,4.77-10.07,38,38,0,0,0,5.32-11.11,6.65,6.65,0,0,1,2.63-4A7.78,7.78,0,0,0,277.6,222c.74-5,4.25-8.38,6.9-12.28.56-.83,1.91-1.42,2-2.23.66-4.73,5-7,6.93-10.86a3,3,0,0,1,1.23-1.36c3.51-1.59,4.87-4.89,6.67-7.91,3.64-6.09,8.53-11.22,13.56-16.09,2.12-2,5-3.36,6.94-5.88.52-.68,1.74-.37,2.44.35a1.81,1.81,0,0,1,.47.84c.09.4.33,1,.16,1.19-2.4,3-1.39,6.76-2.29,10.09a23.28,23.28,0,0,1-1.42,4.09c-1.73,3.51-3.55,7-5.43,10.44-1.1,2-2.12,3.93-1.94,6.39.08,1.12-.74,2.3-1.18,3.45s-1.26,2.26-1.26,3.38a5.87,5.87,0,0,1-1.82,4.41,6.21,6.21,0,0,0-1.47,2.67c-1.23,5-3.52,9.63-5.76,14.24-1,2-2.18,4-3.16,6-1.62,3.33-3.05,6.76-4.75,10.05s-4,6.32-5.39,9.73c-2.61,6.55-7.8,11-12.12,16.22-3.44,4.12-7.15,8.07-10.19,12.48a16.34,16.34,0,0,1-7.27,6.31,11.49,11.49,0,0,1-1.52-1.24C254.85,283.43,254.75,279.45,254.9,275.42Zm-47.47,12.14c1.38-3,.73-6,.41-9.06-.18-1.76,1.16-2.66,2.77-1.95a7.81,7.81,0,0,1,2.45,1.24,1,1,0,0,1,.15.26,10.06,10.06,0,0,0,2.34,3.42c1,1,2,1.84,3,2.79a13.35,13.35,0,0,1,1.79,2,17.53,17.53,0,0,1,1.58,2.62,2.74,2.74,0,0,1-1.34,3.66c-3.58,1.41-7.23,2.65-11.25,4.1h0c-.77-3.23-1.33-5.58-1.86-7.92A2.07,2.07,0,0,1,207.43,287.56Zm-48,44.61c3.61-1.93,6.58-4.94,10.79-5.94,1.87-.44,3.62-2,5.09-3.35,5.38-5,12.16-7.81,18.32-11.59a4.48,4.48,0,0,1,2.36-.64c2.32.09,3.73-1.39,5.42-2.61a32.74,32.74,0,0,1,6.47-3.54c6.49-2.72,13-5.31,19.56-7.9a36.29,36.29,0,0,0,8.72-4.51c3.65-2.73,8.32-2.13,12.52-3.11a3.84,3.84,0,0,1,2.73,1.13c.43.38.84.76,1.25,1.16,1.22,1.18,2.36,2.43,3.53,3.61,0,2.79.66,5.66-.15,8-1.37,4-1.56,8-2.23,12.06-.34,2-.72,4-1.25,6-.8,3-1.63,6-2.67,8.88-1.45,4.07-3.15,8-4.07,12.32-.73,3.39-2.7,6.5-3.58,9.87-1.61,6.12-5.26,11.08-8.29,16.44-3.45,6.1-7.1,12.1-10,18.55-1.21,2.73-3.46,5-5.39,7.71a34.5,34.5,0,0,1-12.31-8.41,41.18,41.18,0,0,1-3.13-3.77A22.93,22.93,0,0,0,201,380c-2.36-2.42-5.15-4.51-7.55-6.91l-2.32-2.29a55.53,55.53,0,0,1-6.5-7.25,34.67,34.67,0,0,0-3.39-4.07,30.4,30.4,0,0,0-3.94-3.41,25.48,25.48,0,0,1-2.86-2.27,7.24,7.24,0,0,1-1.95-3.12,5.36,5.36,0,0,0-1.47-2.32,6.64,6.64,0,0,0-2.43-1.46,15,15,0,0,1-5.4-3.63c-1.15-1.14-2.23-2.37-3.37-3.52-.38-.39-.76-.76-1.16-1.13h0A4.09,4.09,0,0,1,159.44,332.17ZM112.93,303.8a2.6,2.6,0,0,1,2,.4,1.14,1.14,0,0,1,.15.17,7.71,7.71,0,0,0,1.11,1.53,15.79,15.79,0,0,0,4.53,3,16.63,16.63,0,0,1,3.47,2.48,23,23,0,0,1,2.89,3.29,75.78,75.78,0,0,0,8,9.43,38.45,38.45,0,0,0,5.81,4.69,7.56,7.56,0,0,1,1,.74c.9.83,1.68,1.84,2.57,2.7.43.42.85.9,1.29,1.33a4.75,4.75,0,0,0,1.43,1,6.47,6.47,0,0,1,2.07,1.33,5.76,5.76,0,0,1,1.32,2,5.29,5.29,0,0,0,1,1.57,4.36,4.36,0,0,0,.43.43c3.09,2.68,6.29,5.23,9.35,7.94,1,.88,2,1.76,3,2.69a22.68,22.68,0,0,1,2.69,3,45.34,45.34,0,0,0,4.61,5.25c2.74,2.71,5.74,5.14,8.7,7.63.95.79,1.84,1.65,2.71,2.53s1.73,1.77,2.6,2.65a30.42,30.42,0,0,0,5.68,4.79,2.79,2.79,0,0,1,.58.46,8.2,8.2,0,0,1,1.33,1.95,32.63,32.63,0,0,0,6.28,8c.8.8,1.62,1.58,2.45,2.37h0c1.65,1.56,3.16,3.27,4.81,4.83h0c1.8,1.69,3.71,3.26,5.5,4.94h0c.4.38.85,1.23.68,1.56a2.22,2.22,0,0,1-.93.89s0,0,0,0h0a78.62,78.62,0,0,1-8.95-.07,31.42,31.42,0,0,1-7.75-2c-5.54-2.23-11.06-4.55-16.41-7.22a53,53,0,0,1-11-6.82,45.29,45.29,0,0,0-9.73-6.53,10.92,10.92,0,0,1-2.53-1.68,10.45,10.45,0,0,1-1.92-2.34,10.94,10.94,0,0,0-1.74-2.15,8,8,0,0,0-2.25-1.54,16.51,16.51,0,0,1-4.88-3.22,40.92,40.92,0,0,1-5.87-7.52c-.45-.68-.59-1.75-1.2-2.11h0a12.58,12.58,0,0,1-2.37-1.84c-3-3-4.16-7-5.94-10.77a24.88,24.88,0,0,0-3.41-5.13c-4.83-5.86-7.32-12.92-10.33-19.71a3.55,3.55,0,0,1-.36-1.81c.49-2.91-1-5.1-2.27-7.51a18.63,18.63,0,0,1-1.45-5.92A2.29,2.29,0,0,1,112.93,303.8ZM145,374.49a14.59,14.59,0,0,1,1.31,1.42c.51.65,1,1.26,1.6,1.85,3.87,4.13,8.69,7,13.6,9.63,4.34,2.36,8.1,5.81,13.11,6.95a5.89,5.89,0,0,1,2.59,1.66c3.66,3.59,8.2,5.55,13,7,4.51,1.42,8.69,3.88,13.66,3.93,1.45,0,2.88,1.35,4.68,2.25h0c-3.11,6.61-5,13.27-10.38,18.35-3.55,3.34-6.11,7.74-9.09,11.69a64.08,64.08,0,0,1-9.63,10.47A38.68,38.68,0,0,0,173,457.2c-1.21,1.74-2.23,3.37-4.36,4.13-2.28.8-3.51,2.66-4.59,4.79a22.4,22.4,0,0,1-3.67,4.87c-.39.42-1.54.39-2.24.19a.87.87,0,0,1-.33-.21,1.73,1.73,0,0,1-.58-1.23c.61-2.81-.79-5.14-1.38-7.7a44.24,44.24,0,0,1-.94-11.66,16.24,16.24,0,0,0-1-7.26A37.87,37.87,0,0,1,151,428.58c-.05-2.51-1-4.86-1.36-7.22-.54-3.75-1.95-7.06-3.19-10.51a20.45,20.45,0,0,1-1-5.46c-.41-6.63-1-13.19-3.67-19.41a30.29,30.29,0,0,1-1.09-4.81,10.65,10.65,0,0,0-1-3.51c-1.48-2.21-1.22-4.26.42-7.32C141.91,371.9,143.6,373.13,145,374.49ZM6,552.46a12.33,12.33,0,0,0,1-4.76A17.93,17.93,0,0,1,10,538.43c3.53-5.59,7-11.24,8.64-17.78a11.14,11.14,0,0,1,1.92-3.85c1-1.37,1.92-2.66,1.92-4.45a2.81,2.81,0,0,1,.44-1.76c5.24-5.75,6.48-13.67,10.9-19.86.83-1.17,1.51-2.45,2.25-3.68,2.11-3.53,4.47-6.88,6-10.78,1.36-3.41,4.1-6.28,5.41-9.7,2.42-6.36,7.58-10.71,11-16.26,3.25-5.26,7.17-10.07,9.91-15.7,1.68-3.46,4.34-6.49,6.78-9.54A19.67,19.67,0,0,0,79,418a15.6,15.6,0,0,1,4.39-7.4c4.51-4.13,7.15-9.57,10.7-14.36,2.84-3.82,5.53-7.73,9.29-10.77a42.84,42.84,0,0,0,3.31-3.66,30.39,30.39,0,0,1,2.42-2h0a33.73,33.73,0,0,1,5.77,18.93c0,.82-.33,1.9.06,2.41,2.67,3.37,1.9,7.52,2.76,11.29a6.26,6.26,0,0,1,.4,2.43c-.92,4.32,1,8.06,2.07,12,1.65,6,2.68,12.1,3.89,18.19a7.06,7.06,0,0,1-.19,3.06,6.11,6.11,0,0,0,.74,4.76,19.47,19.47,0,0,1,2.06,8.36,92.7,92.7,0,0,0,2.77,19c.93,3.34.72,6.94,2.07,10.28.38.93-.13,2.47-.69,3.48a14.44,14.44,0,0,1-3.09,3.86c-3.41,3-6.84,5.93-10.49,8.57-4.81,3.48-9.82,6.69-14.79,9.95-1.55,1-3.23,1.83-4.86,2.73-1.27.7-2.94,1.07-3.75,2.12-2.7,3.47-6.46,4.86-10.36,6.33-2.66,1-5,2.9-7.51,4.3-2.89,1.59-5.87,3-8.73,4.64a26.27,26.27,0,0,0-4.51,3.26c-3.31,3-6.93,5.17-11.54,5.36a8.42,8.42,0,0,0-3,.8c-4.91,2.19-9.75,4.55-14.7,6.62a60,60,0,0,1-9.4,3.14c-4.59,1.07-9.26,1.86-13.94,2.52a4.37,4.37,0,0,1-3.8-.93C5.3,556.26,5.09,554.53,6,552.46Zm145.87,11.21a16.71,16.71,0,0,1-1.5-6.58c-.37-7.05-1-14-3.71-20.65-.52-1.29-.42-2.83-.69-4.24a30.51,30.51,0,0,0-.88-3.54c-.18-.58-.89-1.16-.8-1.63.81-4.31-1.61-8-2.12-12a42.94,42.94,0,0,0-1.26-5.35c-.82-3.17-1.15-6.47-1.69-9.72-.63-3.86-1-7.74-2.36-11.5-1.1-3.09-1.48-6.43-2.18-9.66a35.85,35.85,0,0,0-1.23-5.42,20.47,20.47,0,0,1-1.15-8.48,50.59,50.59,0,0,0-1.17-10.43c-1.63-9.12-3.7-18.16-5.07-27.34a22.57,22.57,0,0,0-2.24-6.38,17.56,17.56,0,0,1-2.12-8.35c.29-5.93-1.78-11.41-2.85-17.07a77.64,77.64,0,0,1-1.73-14.11,34.66,34.66,0,0,0-1.7-9.07c-.58-2-1.34-3.82-.61-6a7,7,0,0,0-1-5.95c-2.62-4.22-2.56-9-3.13-13.73-.15-1.2.11-2.64-.48-3.56-2.85-4.55-2-9.66-2-14.48a48.13,48.13,0,0,0-.38-8.56c-.33-1.75-1.3-3.55.26-5.72.44.38,1,.69,1.32,1.06a1.52,1.52,0,0,1,.28.4c.75,1.7,1.91,3.51,1.82,5.23-.19,3.66,1.63,6.18,3.55,8.92a24.6,24.6,0,0,1,2.42,5.68,65.87,65.87,0,0,0,7.89,15.39,29.81,29.81,0,0,1,4.79,12.58c.16,1-.16,2.23.29,3.06,2.28,4.28,2.54,9.12,4,13.64s2.84,9,3.18,13.75a41.28,41.28,0,0,0,.95,4.86c.47,2.42,1.07,4.84,1.38,7.29.49,3.92,1,7.77,3.09,11.28a7.19,7.19,0,0,1,1.07,4.13c-.55,5.11,1.71,9.74,2.22,14.65a62.6,62.6,0,0,0,1.28,7.32,38.78,38.78,0,0,0,1.92,6.49c1.6,3.71,2.56,7.4,1.56,11.45a7.83,7.83,0,0,0-.13,3.05c.84,5.1,1.84,10.18,2.67,15.28a81.81,81.81,0,0,1,1.26,9.83A179.58,179.58,0,0,0,157,511.55a29.88,29.88,0,0,1-.18,6.18c-.13,2.44-.8,4.84.45,7.3.45.9-.54,2.44-.3,3.57.87,4.06,1.34,8-.11,12.09a2.82,2.82,0,0,0,.32,1.8,12.72,12.72,0,0,1,.63,8.49,5.68,5.68,0,0,0,0,2.46,20.11,20.11,0,0,1-.73,11c-.87,2.43-.61,5.26-.89,8.27-1-.36-1.34-.41-1.35-.5h0C154.54,569.09,153.24,566.41,151.86,563.67Zm8.42-73.82c-.32-2.23-.2-4.52-.58-6.73A9.58,9.58,0,0,1,162,475a17.3,17.3,0,0,1,3.57-3.43c5.5-3.58,9-9,13.15-13.83a70.25,70.25,0,0,1,8.57-8.92,27.81,27.81,0,0,0,6.61-8.09c1.05-1.84,2-3.53,4.06-4.44a6,6,0,0,0,3.47-4.16c1.27-5,4.87-8.56,8.06-12.29a10,10,0,0,0,2.51-4.12,5.63,5.63,0,0,1,1.37-2.72c3-2.83,4.36-7,7.84-9.51,1.35-1,1.85-3.14,2.7-4.78q5-9.62,10-19.26a1.43,1.43,0,0,1,.34-.51c2.9-1.93,3.94-5.09,5.38-9,1,.83,1.7,1.25,2.13,1.67-.43-.42-1.14-.84-2.13-1.67-1.44,3.93-2.48,7.09-5.38,9a1.43,1.43,0,0,0-.34.51q-5,9.63-10,19.26c-.85,1.64-1.35,3.8-2.7,4.78-3.48,2.54-4.82,6.68-7.84,9.51a5.63,5.63,0,0,0-1.37,2.72,10,10,0,0,1-2.51,4.12c-3.19,3.73-6.79,7.25-8.06,12.29a6,6,0,0,1-3.47,4.16c-2.07.91-3,2.6-4.06,4.44a27.81,27.81,0,0,1-6.61,8.09,70.25,70.25,0,0,0-8.57,8.92c-4.15,4.83-7.65,10.25-13.15,13.83A17.3,17.3,0,0,0,162,475a9.58,9.58,0,0,0-2.25,8.08c.38,2.21.26,4.5.58,6.73a66.16,66.16,0,0,0,2.12,9.89h0A66.16,66.16,0,0,1,160.28,489.85ZM233,489a23,23,0,0,1,.29-4.28c-.57-4.52-1.13-9-1.7-13.5a3.27,3.27,0,0,1,1.21-3.27,2.52,2.52,0,0,1,3.43.2,1.86,1.86,0,0,1,.25.46,11.43,11.43,0,0,1,1.15,4.13c-.18,7.55.71,15.13-.55,22.64-.09.5-.76,1.35-1,1.3a4,4,0,0,1-1.6-.72.84.84,0,0,1-.25-.36A41.27,41.27,0,0,1,233,489Zm103.41-99a8.62,8.62,0,0,1,2.39-2.63c1.85-1.2,3.87-2.13,6.17-3.37a6.83,6.83,0,0,1,1.38,1,8.78,8.78,0,0,1,2.18,4.05,3.64,3.64,0,0,1-2.69,4.75,11.92,11.92,0,0,1-8.38-.77,3.17,3.17,0,0,1-.79-.58A2,2,0,0,1,336.42,390ZM343,473.8c2.19-2.3,1.93-5.32,2.63-8.09a145.49,145.49,0,0,1,4.73-15.26,86.88,86.88,0,0,0,4.13-13.55c1.05-5.23,2.82-10.31,4.33-15.44.09-.3.62-.46,1.14-.82a7.13,7.13,0,0,1,.79.76c1.69,1.86,2.22,4.36,3.23,6.64,2.21,4.93.29,9.2-1.85,13.37a13.15,13.15,0,0,0-1.68,4.52,23.3,23.3,0,0,1-4.22,10.15c-3.22,4.77-5.74,10-8.64,15a32.6,32.6,0,0,1-2.88,4,1.17,1.17,0,0,1-1.11.16h0C343.24,474.84,342.81,474,343,473.8Zm38.1-104.91a3.67,3.67,0,0,1,1.71.91,2.24,2.24,0,0,1,.61.87c.86,2.66,2.56,5.22,1.27,8.31a7.14,7.14,0,0,0-.27,3.6,15.48,15.48,0,0,1-2.07,10.69,55.51,55.51,0,0,0-2.59,5.32c-.82-.59-1.58-1-2.11-1.42a2.3,2.3,0,0,1-.45-.49,8.91,8.91,0,0,1-1.36-3.42c-.31-2.08-.68-4-2.26-5.6a3.21,3.21,0,0,1-.92-2.21c.24-2.93-1.21-5.15-2.73-7.39-1.68-2.48-2-5.29-2.28-8.12C372.1,367.17,376.62,368.11,381.07,368.89Zm-57.35,6.36c3.68-.09,6.08-2.27,8.22-4.94a2.9,2.9,0,0,1,1.51-1c3.53-.75,6.41-2.8,9.5-4.48,3.68-2,7.68-.7,11.53-.41a2.79,2.79,0,0,1,1.62.88,2.94,2.94,0,0,1,.41.47c3.23,4.4,7.39,8,8.3,14.11a45.74,45.74,0,0,0,5.65,16.37,14.67,14.67,0,0,1,1.69,4.62,7.88,7.88,0,0,0,1.88,4.48c.28.29.66.71.63,1-.43,4.17,2.07,7.46,3.28,11.13.58,1.75,1.2,3.48,1.7,5.24.9,3.17,1.81,6.35,2.55,9.56a74.52,74.52,0,0,0,3.31,11.92c1.26,3,1.72,6.37,2.57,9.56.58,2.2,1.3,4.36,1.81,6.57a18.64,18.64,0,0,1,0,3.53,12.92,12.92,0,0,1-1.67-1.48,17.25,17.25,0,0,1-3.07-4.78c-3.24-6.89-7-13.54-9.82-20.65a21.21,21.21,0,0,0-4.35-7.44,15.55,15.55,0,0,1-4.09-7.58c-1.31-6.19-4.78-11.4-7.2-17.09-1.78-4.18-3.13-8.53-4.69-12.8-.71-1.93-1.4-3.86-2.22-5.74-1.4-3.2-4.16-5.64-5-9.21a1.38,1.38,0,0,0-.54-.82,2.71,2.71,0,0,0-3.16.22c-2.4,2-4.65,4.11-7.14,5.95-2.13,1.57-5,2.4-6.64,4.32-1.81,2.08-4,3.51-6,5.29a3.53,3.53,0,0,1-1.54,1c-4.21.68-6.68,3.84-9.64,6.42-5,4.38-10.93,7.46-16.78,10.58a4.62,4.62,0,0,1-2.39.52c-2.21-.17-3.92.86-5.77,1.87-4,2.17-6,1.82-9.42-1.51-1.7-1.66-3.54-3.25-5.27-4.92a28.54,28.54,0,0,1-4.54-5.39c-2.7-4.41-7.38-7.33-8.94-12.47a1.28,1.28,0,0,0-.33-.53h0c-.42-.38-.83-.78-1.22-1.2-2.75-2.88-4.75-6.33-7-9.6s-4.6-6.27-6.81-9.46A6.34,6.34,0,0,1,244,362a21.07,21.07,0,0,1,1.58-4c1.21-2.41,2.71-4.68,3.76-7.14a82.94,82.94,0,0,0,2.45-8h0A79.37,79.37,0,0,1,261.57,359a23.12,23.12,0,0,0,4.79,7.17,17.52,17.52,0,0,1,5.75,10.71,7.63,7.63,0,0,0,1,2.89q5.7,9.62,11.53,19.15a5,5,0,0,0,.58.8c1.41,1.65,3.27,1.73,5.13.12,4.05-3.5,8.63-6.31,12.38-10.23,1.65-1.72,4.14-2.68,6.35-3.81a13.86,13.86,0,0,0,4.88-3.63c1-1.28,3.28-1.52,4.73-2.58a41.1,41.1,0,0,0,3.92-3.89A1.84,1.84,0,0,1,323.72,375.25ZM293,359.37c.4-4.3.67-8.6,1-12.91,0-.2,0-.44,0-.61.44-.86.74-2.16,1.43-2.43a3.07,3.07,0,0,1,2.6.93h0c1.92,2.15,3.64,4.48,5.39,6.78,1,1.32,1.82,2.8,2.94,4a7.5,7.5,0,0,0,2.44,1.82,1.61,1.61,0,0,1,.48.32,4.1,4.1,0,0,1,1,1.56,4.78,4.78,0,0,0,1.11,1.77,15.87,15.87,0,0,0,2.76,2,39.34,39.34,0,0,1,5.71,4.69h0a2.55,2.55,0,0,1-.61,4.2c-3.34,2-6.75,3.92-10.13,5.86-1.6-.72-3.13-1.31-4.55-2.1a6.9,6.9,0,0,1-1.88-1.34,2,2,0,0,1-.36-.57,7.23,7.23,0,0,0-1.51-2.39,16,16,0,0,0-3.69-2.68,9.4,9.4,0,0,1-2.16-1.7A8.93,8.93,0,0,1,293,359.37Zm-.45,14.29c1.45.49,3.15.53,3.65,1.33,1.73,2.74,4.29,4.26,6.92,5.84,1,.59.85,1.83.21,2.78a4.56,4.56,0,0,1-1.31,1.28c-3.88,2.34-7.79,4.64-11.7,6.94-.93.55-2.08.92-2.78-.06a3.67,3.67,0,0,1-.64-2.81,30.12,30.12,0,0,0,2-8.25C289.08,378.48,291.05,376.4,292.54,373.66Zm80.28-70.22a10,10,0,0,0-1.83-2.17c-2.07-1.86-4.7-2.91-7-4.43a41.65,41.65,0,0,1-6.12-5,103.32,103.32,0,0,1-8.62-9.92c-.43-3.25-2.77-5.43-4.41-8-1.73-2.74-5.08-4.38-5.44-8a.45.45,0,0,0-.14-.26,1.21,1.21,0,0,0-.25-.21,14.46,14.46,0,0,1-2.9-2.35c-3.58-3.78-4.82-9-7.15-13.59-1.58-3.12-3.41-6.11-5-9.23-.83-1.63-1-3.76-2.13-5-3.2-3.61-3.08-8.39-4.69-12.52-2.36-6-2.39-12.49,1.34-18.39,1-1.66,2.4-2.29,4.17-1.49a39.76,39.76,0,0,1,5.51,2.83c3.28,2.13,6.46,4.41,9.63,6.7a10.26,10.26,0,0,1,1.19,1,6.4,6.4,0,0,1,1,1.2c2.62,4.28,6.33,7.59,9.64,11.26a148.73,148.73,0,0,1,14.93,18.81,23.89,23.89,0,0,0,3.73,4.71,14.08,14.08,0,0,0,1.58,1.26,17,17,0,0,1,2.73,2.25,15.74,15.74,0,0,1,3.22,4.77c2.33,5.41,6.32,9.64,9.63,14.35a54.63,54.63,0,0,1,6.89,12.41,17.3,17.3,0,0,0,2.12,4.44c2.59,3.47,2.93,7.67,4.14,11.59a3.92,3.92,0,0,1-1.64,4.38c-2.47,1.9-5,3.75-8.29,2.75-.61-.07-1.08-.27-1.42-.14-4.68,1.78-8.38-1-12.3-2.65a7.46,7.46,0,0,1-1.69-.86A1.67,1.67,0,0,1,372.82,303.44ZM404.11,297c-.54-5.89-1.62-11.66,2.21-17.32a44.9,44.9,0,0,0,6.59-16,42.54,42.54,0,0,1,2.07-5.79c.42-1.15,1.18-2.27,1.22-3.43a6.31,6.31,0,0,1,1.73-4.47,6,6,0,0,0,1.44-2.68c1.32-5.84,4-11.17,6.09-16.74a22.9,22.9,0,0,1,1.34-2.78A67.56,67.56,0,0,0,432,215.92c1-3.32,3.3-6.27,4.23-9.61,1.77-6.38,6.15-11.1,9.44-16.53s6-10.84,9.17-16.14a109.46,109.46,0,0,1,6.71-9.61A18.72,18.72,0,0,0,465,157.5a15.64,15.64,0,0,1,4.76-7.88c4.31-3.71,7-8.66,10.46-13,3.22-4.08,6.43-8,10.77-11a20.82,20.82,0,0,0,5.11-5.35c1.7-2.48,3.5-4.42,6.59-5.17,1.71-.41,3.24-1.63,5-2.58h0c2.2,3.22,1.89,6.58,1.4,9.74-.32,2.08-.79,4,.05,6a3.93,3.93,0,0,1,.22,2.43c-1.19,4-.39,8.24-2.35,12.11-.78,1.52-.66,3.65-.52,5.47.59,7.57-1.53,14.79-2.72,22.12a6.42,6.42,0,0,1-1.25,2.79,7.18,7.18,0,0,0-1.34,5.27c.22,3-.79,5.69-1.88,8.4-2.39,6-4.29,12.13-7.1,17.87-2.23,4.56-3.46,9.72-7.26,13.47a8.81,8.81,0,0,0-1.92,3.16c-.81,2.18-2.42,3.82-3.57,5.73-4.16,7-10.47,12.14-15,18.74a19.72,19.72,0,0,1-3.52,3.49c-3.13,2.73-6.24,5.4-7.94,9.4a6.79,6.79,0,0,1-2.86,3.15c-5,2.51-7.77,7.36-11.88,10.78-1.42,1.19-2.63,2.65-4.1,3.75a19.85,19.85,0,0,0-5.37,6,18.46,18.46,0,0,1-9.64,8.33c-1.48.57-2.68,1.87-4,2.88-2.27,1.79-4.44,3.72-6.81,5.37a2.77,2.77,0,0,1-3.28-.1A2.55,2.55,0,0,1,404.11,297Zm95.19-92.64c.2-1.21,0-2.49.3-3.69a32.18,32.18,0,0,1,3-8.07c2.88-5.48,5.18-11.29,5.49-17.58a18.63,18.63,0,0,1,3.41-10,13,13,0,0,1,8.73,1.51c1.24.7,2.57,1.26,3.88,1.84a7.14,7.14,0,0,1,1.9,1.18c1.4,1.27,1.31,2.89-.24,5.13-.81,1.18-1.75,2.29-2.5,3.52-1.6,2.62-3,5.36-4.7,7.93-1.81,2.76-3.8,5.38-5.76,8-.6.83-1.6,1.46-2,2.36-2.36,5.72-7.51,8.48-12.67,12.39h0C498.65,206.89,499.08,205.64,499.3,204.35ZM587,220.74h0c-1.78-1.69-4.16-2.8-5.78-4.61h0c-2.35-2.6-4.14-5.69-6.38-8.39-2.49-3-5.22-5.84-7.85-8.75-.82-.91-1.6-1.87-2.41-2.79s-1.71-2.28-2.69-3.22a5.94,5.94,0,0,0-1-.82,6.19,6.19,0,0,1-.92-.67c-2-1.7-2.69-4.27-4.59-5.94h0c-2.15-1.9-4.52-3.46-6.54-5.62h0c-1.13-1.2-2.24-2.45-3.43-3.63a18.8,18.8,0,0,0-6.94-4.71,14,14,0,0,1-5.22-3.28,38.49,38.49,0,0,0-19.76-10.9.7.7,0,0,1-.28-.2L513,157c-.08-.09-.18-.18-.3-.29h0c-.67-3.43-.87-6.49.29-9.84a26.57,26.57,0,0,0,.9-9.77c-.26-5.18.5-10.27.61-15.41.06-3.07.15-6.15-1-9.19a2.49,2.49,0,0,1,3-3.39c3.06.54,6.11,1.1,9.11,1.87a11.81,11.81,0,0,1,3.84,1.91c3.87,2.74,7.73,5.51,11.45,8.44a119,119,0,0,1,11,9.62,63.15,63.15,0,0,1,5.76,6.65,30.1,30.1,0,0,0,3.92,4.56,16.53,16.53,0,0,0,1.59,1.25,15.2,15.2,0,0,1,2.68,2.3,14.48,14.48,0,0,1,3,4.92c2.07,5.71,6.05,10.3,8.77,15.61a78.64,78.64,0,0,1,5.2,11.88,35.45,35.45,0,0,0,3.19,7.35c1.68,2.83,3.57,5.42,3.4,9.06-.07,1.39,1.2,3.05,2.25,4.25,3.25,3.74,4.3,8.37,5.62,12.91.28,1,.15,2.18.68,2.94,4.41,6.21,5,13.3,4.85,20.55,0,.16-.23.31-.62.8a9.32,9.32,0,0,1-2.49-1.14c-2.8-2.46-5.35-5.2-8.26-7.51a5.77,5.77,0,0,1-.76-.72C589.13,224.82,588.72,222.35,587,220.74Z" fill="#382151"/>
  </g>
</svg>
